<?xml version="1.0" encoding="UTF-8"?>
<svg version="1.1" viewBox="0 0 2048 1030" width="1280" height="1280" xmlns="http://www.w3.org/2000/svg">
<path transform="translate(0)" d="m0 0h2048v1030h-2048z" fill="#FDFDFD"/>
<path transform="translate(42,111)" d="m0 0h287l34 5 26 7 15 6 25 12 16 10 19 14 14 12 14 14 9 11 10 13 12 19 12 23 8 21 8 25 5 25 2 26v24l-3 26-4 23-6 21-7 19-6 13 1 5 13 17 10 15 12 20 8 15 10 24 6 18 6 24 5 26 1 9 1 24v18l-2 23-4 22-8 30-9 26-12 25-11 19-11 16-9 11-12 14-17 17-8 7-15 11-18 11-21 11-23 10-11 4-30 6-24 2h-338l-13-1-1-1v-45l2-7 329-1 28-1 24-5 17-5 19-8 20-11 14-10 14-12 16-15 10-12 14-21 11-21 9-24 6-20 4-20 3-24v-34l-2-19-4-18-9-30-10-24-10-18-11-16-3-4-4 2-11 12-7 8-12 11-13 10-2 2 1 6 11 19 7 16 5 16 4 22 2 18v14l-4 27-5 19-6 15-11 21-9 13-8 10-12 12-14 10-18 10-24 9-9 1h-328l-18-1-5-1-1-5v-709l1-7 2-1z" fill="#A87C5B"/>
<path transform="translate(723,111)" d="m0 0h117l56 1 39 2 32 5 41 9 29 9 23 8 26 11 26 13 17 10 23 16 10 8 13 11 11 9 13 12 11 12 10 13 12 15 12 17 11 17 14 27 10 23 12 36 8 29 4 21 5 36 1 11 1 27v54l-4 31-5 29-7 28-12 36-13 30-11 22-13 22-10 15-14 18-11 14-9 10-7 8-18 18-11 9-12 9-23 16-18 11-17 10-19 9-31 13-33 11-26 7-38 7-24 3-13 1h-89l-14-1-3-1-2-121-75-1-37-1-9-1-2-5-1-22-1-449v-121l47-1h131l45 1 32 3 26 5 26 7 24 8 23 10 25 12 19 12 17 14 10 9 13 13 9 11 11 15 8 13 14 27 9 26 3 4 9 40 3 15 2 31v56l-4 27-8 34-9 26-13 30-8 14-23 34-11 12-9 9-11 9-12 10-17 12-15 9-19 10-25 10-26 8-31 7-32 5-36 2h-17l2 69h20l33-2 37-5 31-6 25-7 20-7 25-11 27-13 18-11 17-12 16-13 20-18 12-12 9-11 11-14 14-19 15-26 8-16 8-18 9-24 6-19 7-32 4-27 1-13v-64l-2-24-5-32-6-28-7-24-8-22-8-18-12-23-12-18-8-11-10-13-13-15-16-16-22-18-24-16-24-14-27-13-22-8-31-9-30-7-21-4-31-3-15-1-30-1-164-1-17-1-8-2-1-4-1-47z" fill="#F7C190"/>
<path transform="translate(1562,111)" d="m0 0h55l3 4 9 24 21 62 15 43 19 58 17 48 20 59 14 40 29 86 12 34 22 68 5 5 49 16 14 5 9 4 7 1-6-20-3-8-5-13-7-20-20-59-14-41-18-53-12-36-17-49-18-53-14-41-19-56-15-43-14-42-5-19v-3l21-1h32l6 9 6 15 19 56 22 63 18 53 14 41 25 76 4 10 7 22 4 10 11 34 4 10 6 19 4 10 24 72 4 10 5 15 4 14 4 10 5 16 4 10 3 10 3 7 4 13 5 16 4 10 5 16 4 10 24 72 4 10 7 21 3 11 4 10 7 22 4 10 6 19 4 13v4h-50l-5-3-4-5-5-14-5-12-12-36-12-35-5-15-8-23-10-30-4-10-4-13-4-10-6-18-1-2-21-6-25-8-39-13-43-14-16-6-17-5-37-12-48-16-41-13-36-12-5-1-13 36-11 29 23 7 96 31 54 18 99 32 17 6 9 3 4 8 6 19 4 10 14 43 12 36 8 23 5 18 2 8 1 5h-41l-11-1-4-2-7-15-22-67-13-36-2-4-27-9-9-4-43-14-89-29-47-15-54-18h-2l-6 16-22 64-12 36-17 50-13 37-4 9-2 1-13 1h-28l-14-1 1-7 12-35 10-28 19-56 15-43 13-40 6-24-9-2-20-6-31-12h-3l-7 18-10 28-12 35-14 43-13 37-9 25-9 29-8 23-1 10-6-1-5 3-6 6h-12l-8-1-8-3h-13l-7 1 1-5 17-47 22-62 12-38 19-53 30-90 15-43 21-62 12-33 14-43 14-41 15-43 23-67 30-90 25-70 12-35 10-25z" fill="#F7C190"/>
<path transform="translate(1716,111)" d="m0 0h32l6 9 6 15 19 56 22 63 18 53 14 41 25 76 4 10 7 22 4 10 11 34 4 10 6 19 4 10 24 72 4 10 5 15 4 14 4 10 5 16 4 10 3 10 3 7 4 13 5 16 4 10 5 16 4 10 24 72 4 10 7 21 3 11 4 10 7 22 4 10 6 19 4 13v4h-50l-5-3-4-5-5-14-5-12-12-36-12-35-5-15-8-23-10-30-4-10-4-13-4-10-6-18-1-2-21-6-25-8-39-13-43-14-16-6-17-5-37-12-18-6-10-4 2-2-38-13-43-14-10-4-18-5-2-4-5-3-2-4-1-12-2-7-3-10v-17l3-6 1-13 1-2v-18l3-11 3-14 6-22 2-12h-2l-2 4v-6l17-48 20-60 10-27 7-19-1-9-12-36-15-46-5-16v-5l-6-1-8 4-2-1-1-5-3-1-2-22 5-14 5-11 1-7 9-11 6-4 12-3h13l3 2 16 47 15 43 14 41 14 43 19 54 19 56 14 40 29 86 12 34 22 68 5 5 49 16 14 5 9 4 7 1-6-20-3-8-5-13-7-20-20-59-14-41-18-53-12-36-17-49-18-53-14-41-19-56-15-43-14-42-5-19v-3z" fill="#C89B74"/>
<path transform="translate(42,111)" d="m0 0h287l34 5 26 7 15 6 25 12 16 10 19 14 14 12 14 14 9 11 10 13 12 19 12 23 8 21 8 25 5 25 2 26v24l-3 26-4 23-6 21-7 19-6 13 1 5 13 17 10 15 12 20 8 15 10 24 6 18 6 24 5 26 1 9 1 24v18l-2 23-4 22-8 30-9 26-12 25-11 19-11 16-9 11-12 14-17 17-8 7-15 11-18 11-21 11-23 10-11 4-30 6-24 2h-338l-13-1-1-1v-45l2-7 329-1 28-1 24-5 17-5 19-8 20-11 14-10 14-12 16-15 10-12 14-21 11-21 9-24 6-20 4-20 3-24v-34l-2-19-4-18-9-30-10-24-10-18-11-16-3-4-4 2-11 12-7 8-12 11-13 10-2 2 1 6 11 19 7 16 5 16 4 22 2 18v14l-4 27-5 19-6 15-11 21-9 13-8 10-12 12-14 10-18 10-24 9-9 1h-189v-1l92-1 13-2 24-5 8-4-1-4-1-2 1-2-3-1-2-4v-5l4 3h2l7-14-5-2-2-4 3-5-124-1v-1l146-1 17-1 18-4 14-7 12-11 9-10 8-14 6-14 6-21v-26l-2-14-6-20-8-17-7-10-4-5-9 2-17 5-22 4-17 3-20 1h-125v-1l5-1 91-1 18-2 17-5v-2l-8-4-11-3-9-5-2-4 2-6 2-2h3v-2l3-2v-3l-9-3-11-2-7-1-18-2h-28l-7-1h-11l-1-1-18-1-2-2v-69h1l1 68 40 1h45l44-1 27-3 31-8 16-7 18-10 15-10 11-9 10-9 8-8 9-11 12-16 8-16 8-19 7-23 5-31 1-23-4-33-5-21-8-23-8-18-9-16-9-12-12-14-8-8-14-11-15-10-20-11-20-8-19-5-20-3-20-1-136-1v-1h123v-2l-5-1-1-2 2-3v-7l-4-4-4-11-2-2-2-8-11-4-11-2-1-2-3-1v-2h-3v-2h-211z" fill="#C99C74"/>
<path transform="translate(859,291)" d="m0 0h25l32 3 30 5 24 6 24 8 18 8 18 10 15 10 14 11 14 13 9 11 11 16 10 17 7 15 8 27 7 34 3 22 1 18v33l-2 20-7 31-7 22-7 17-14 25-10 14-11 13-15 16-22 18-15 10-24 12-25 10-22 6-35 6-20 2-20 1h-13l-2-7-1-69v-349l1-57z" fill="#FEFEFE"/>
<path transform="translate(61,166)" d="m0 0h250l20 1 24 4 21 6 22 10 20 12 12 9 13 11 9 9 9 11 11 16 10 19 9 24 6 20 4 24 2 19-1 23-5 31-8 26-11 25-7 11-9 12-13 15-12 12-14 11-15 10-18 10-16 7-31 8-27 3-44 1h-45l-40-1-1-1v-68l1-1h129l19-2 18-5 13-7 17-12 10-9 8-8 10-13 9-15 5-13 6-25 1-6v-25l-1-13-6-21-9-20-11-17-9-11-10-10-12-9-12-7-21-7-17-3-259-1-4-2z" fill="#FDFDFD"/>
<path transform="translate(1716,111)" d="m0 0h32l6 9 6 15 19 56 22 63 18 53 14 41 25 76 4 10 7 22 4 10 11 34 4 10 6 19 4 10 24 72 4 10 5 15 4 14 4 10 5 16 4 10 3 10 3 7 4 13 5 16 4 10 5 16 4 10 24 72 4 10 7 21 3 11 4 10 7 22 4 10 6 19 4 13v4h-50l-5-3-4-5-5-14-5-12-12-36-12-35-5-15-8-23-10-30-4-10-4-13-4-10-6-18-1-2-21-6-24-8 1-2 26 8 5 1-39-13-7-2v-2l-4-2-4-3-10-4-10-8-3-7-2-8-3-1 2-7 1-3 4-2 20-3 3-1h9l12 4v-2l-4-2 10 2 9 4 7 1-6-20-3-8-5-13-7-20-20-59-14-41-18-53-12-36-17-49-18-53-14-41-19-56-15-43-14-42-5-19v-3z" fill="#A97C5B"/>
<path transform="translate(393,605)" d="m0 0 4 1 4 5 9 14 6 13 6 20 2 14v26l-6 21-7 16-7 12-11 12-7 7-9 6-12 5-15 3-17 1h-146l-1-3-1-52v-105l126-1 20-1 35-6 15-4z" fill="#FDFDFD"/>
<path transform="translate(735,291)" d="m0 0h66l3 1 1 489h-52l-19-1-1-1-1-94v-272l1-109 1-12z" fill="#FEFEFE"/>
<path transform="translate(61,291)" d="m0 0h70l1 1v489l-1 1h-68l-2-2z" fill="#FDFCFC"/>
<path transform="translate(1589,200)" d="m0 0 3 1 16 50 16 47 2 9-1 7-6 16-14 39-18 54-33 94-24 72-14 41-10 29-6 16-3 1-24-9-32-11-6-3 1-8 14-40 25-76 15-43 17-49 14-41 12-36 16-45 18-54 10-28z" fill="#FEFEFE"/>
<path transform="translate(187,291)" d="m0 0h121l21 2 12 5 11 8 7 7 9 14 6 14 3 15v21l-5 17-5 11-6 10-7 8-13 8-14 7-10 2h-124l-7-1-1-52v-53l1-40z" fill="#FEFEFE"/>
<path transform="translate(1576,707)" d="m0 0 9 1 10 1 5-1 74 24 51 17 99 32 17 6 9 3 4 8 6 19 4 10 14 43 12 36 8 23 5 18 2 8 1 5h-41l-11-1-4-2-7-15-22-67-13-36-2-4-27-9-9-4-43-14-89-29-47-15-36-12-4-2 2-1 44 14 4 1v-2l-11-3-19-10-12-6-7-12v-5-4l-2-10 2-1 17-1z" fill="#C89B74"/>
<path transform="translate(679,287)" d="m0 0 2 4 1 17v11l2 26 1 12 1 2h2v-2h2l-1-8 2-3h2l3 8 3-1 3 9 4-1 2 1 3-7 1-7 2-7 3-14 1-5 4 2 1 2 3-4 3 9v10l1 11v24l1 29v299l-1 6v43l-2 6h-2l-1 5-5 7 2 1-2 5-5 5h-2l1 3 3 2-6 4h-2v2h-2l-2 6-2 3v8l-2 7-3 3-4-2-2 4h-4l-1 6 4-2h3l4 3 7 3 9 1v1h-32l-2-5-1-22z" fill="#E4AE80"/>
<path transform="translate(70,236)" d="m0 0h254l17 3 21 7 15 9 13 11 10 10 11 15 8 14 8 19 5 18 1 13v25l-6 27-5 15-8 14-10 13-9 10-9 9-17 12-10 6-12 5-12 3-19 2h-130v-2l105-1 14-4 8-2 3-3-1-5-9-5-7-6-3-1 1-5 12-6-1-3-16-6v-3l-11-2h-75l-17-1-4-1v-53h1v52h131l13-3 20-11 8-7 7-11 5-10 5-15 1-5v-21l-3-15-7-16-9-13-7-7-11-7-10-4-21-2-121-1-1 43h-1v-41l2-4h78l23-1 3-2 16-4v-3l-9-7-9-5-2-9 3-6h3l-4-6-7-2 3-3 5-3-220-1z" fill="#C99C75"/>
<path transform="translate(1716,111)" d="m0 0h32l6 9 6 15 19 56 22 63 18 53 13 38-1 5-2-1v-2h-2l-6-12-5-15-7-13-4-1-1 10 2 10v6l-2 2-1 8-9 4 2 11 4 16 6 20 2 1v6h2v6l1 2 1 4h1l3 15 6 26 3 10 2 9v5h2v13l3 12 1 7-4 4-20-59-12-36-17-49-18-53-14-41-19-56-15-43-14-42-5-19v-3z" fill="#C99B74"/>
<path transform="translate(9,907)" d="m0 0h304l-4 2-7 4h-3v2l7 1v4l-5 4-5 3-2 4v2l6 2 4 6 3 5v2l-8 4-5 1 3 3 6 2v1l-186 1h-95l-13-1-1-1v-45z" fill="#A87C5B"/>
<path transform="translate(1655,392)" d="m0 0 3 4 18 53 15 43 22 65 15 43 6 18 2 1-1 2-18-6-43-14-47-16-30-9-3-2 1-8 18-54 30-86 11-32z" fill="#FEFEFE"/>
<path transform="translate(1839,788)" d="m0 0h7l5 3 6 16 3 10 4 10 14 43 12 36 8 23 5 18 2 8 1 5h-41l-11-1-4-2-7-15-18-55 2-8-4-12-2-5 1-2-2-1-3-12v-10l-2-4v-9l5-5 7-8 2-9 2-1 2-5 5-4z" fill="#A87C5B"/>
<path transform="translate(1573,467)" d="m0 0h2l-1 12-8 29-3 15-1 3v18l-2 10v5l-3 6v17l5 20 1 9 2 4 5 3 1 4 6 1 15 4 19 7 55 18 16 6-4 2-11-3-53-17-36-12h-2l-13 36-11 29 23 7 22 7-2 3-10-1-9-1-7 3h-17l-1 5 2 2-1 7 1 3 1 5 5 8v2l5 2 19 9 5 4-9-2-26-9-11-8-7 1-2-1-1-3v-9l3-13 2-13 2-7-4-9 2-20 4-13 3-12 2-5 2-8 2-5v-8l-3-9-1-28h-3v-7l4-15 2-10 7-24v-3l-4 10h-1l1-8 18-52 2 1z" fill="#E3AD80"/>
<path transform="translate(1619,117)" d="m0 0 3 3 1 5-4-1h-11l-12 3-6 4-8 10-2 9-5 12-4 11 2 22 3 3 2 3 8-4 6 2-1 2-2-1-2 9-14 38-7 20-3 1-1-1-8 21-5 11-6 17-5 11h-2v-8l3-8 2-5 3-20 2-6 4-18 2-11 2-6 3-15 3-8 2-5 3-9-1-9-3-10-1-7v-8l3-9 3-7 2-10 7-14 6-8 4-2 12-2 8-2 8-1 4 1v-2z" fill="#E4AE80"/>
<path transform="translate(1830,513)" d="m0 0h2l4 11 2-3 2 4h3l1 4 3 1 6 16 2 6 4 25 1 11-1 2 2 1-2 7-2-3-16-47-11-32z" fill="#C69872"/>
<path transform="translate(1776,638)" d="m0 0h8l7 5 11 3v1l-12 1-6-2v12l-1 7 2 8 3 1 3 5v6l5 2 14 8 9 4v2l3 1-3 1-14-5-6-5v-2l-4-1v-2l-12-3-6-4-1-10-3-7v-7l2-4 2-1-2-7v-6z" fill="#A87C5B"/>
<path transform="translate(457,569)" d="m0 0 2 1-9 8 1 6 11 19 7 16 5 16 4 22 2 18v14l-4 27-5 19h-1v-10l2-9 3-25v-22l-4-26-6-22-8-19-8-14-3-7v-5l3-3z" fill="#E8B283"/>
<path transform="translate(598,623)" d="m0 0 2 4 3 17 1 9 1 24v18l-2 23-2 13h-1l-1-7-1-1v-9l1-11v-23l-2-36-1-15z" fill="#E8B283"/>
<path transform="translate(1836,911)" d="m0 0 3 1 3 9 7 19 4 4 10 6 5 4-1 4-5 1h-8l-4-2-7-15-9-28v-2z" fill="#CB9D75"/>
<path transform="translate(1595,210)" d="m0 0 1 2 4 1 8 26 3 9 8 21 7 21-1 5-2 3-23-68-5-17z" fill="#E7B182"/>
<path transform="translate(422,314)" d="m0 0 2 2 6 18 2 8 1 13v25l-6 27-5 15-7 12-1-2 6-17 7-26 2-13v-23l-2-16-5-20z" fill="#E9B384"/>
<path transform="translate(322,782)" d="m0 0h8l1 2 12 4 2 2-1 5-8 12 1 6 5 6v2l-4-1-7-4-2-6 1-6 2-10-5-4-5-3z" fill="#A87C5B"/>
<path transform="translate(1593,571)" d="m0 0 4 4 42 13 15 5-3 3-9-2-15-4-23-4-8-4-3-4z" fill="#E6B082"/>
<path transform="translate(552,311)" d="m0 0h1l3 17 2 26v24l-3 26-2 13h-1l-2-9 3-29 1-24v-22l-3-6v-6l1-4z" fill="#E8B283"/>
<path transform="translate(1551,749)" d="m0 0 12 3 34 11h7l67 22v2l-8-2-10-3-9-1-53-17-36-12-4-2z" fill="#DCAA7E"/>
<path transform="translate(540,614)" d="m0 0 3 2 6 13 3 16v11l1 9-1 14-1 4-2 22h-1v-43l-2-19-4-18-2-7z" fill="#EAB485"/>
<path transform="translate(341,906)" d="m0 0h22v1l-14 4-4 3-1 5-4 7-1 7-3-3v-12l-1-2-8-4-1-5z" fill="#A87C5B"/>
<path transform="translate(1581,626)" d="m0 0h8l25 9 52 17 16 6-4 2-11-3-28-9-1-2-55-18z" fill="#EAB687"/>
<path transform="translate(1790,772)" d="m0 0 9 1 2 1v2l3 1-1 1 4 1 1-2 16 6 1 2h-7l-5-2v-2h-18l1 3 3 2v2h2l1 7 4 4-1 4-7 4-1-8 1-5-2-5-6-7v-2l-3-1z" fill="#A97D5C"/>
<path transform="translate(1581,210)" d="m0 0 4 1-2 9-10 27-7 20-2-1-1-6 3-8 7-20 6-18z" fill="#F8C291"/>
<path transform="translate(457,569)" d="m0 0 2 1-9 8 1 6 11 19 7 16 5 16 4 22v7h-1l-4-17-3-15-5-15-5-11v-2h-2l-9-16-3-7v-5l3-3z" fill="#F5BF8E"/>
<path transform="translate(420,528)" d="m0 0 2 1-11 8-23 13-22 9-17 4-30 3h-47v-1l44-1 27-3 31-8 16-7 18-10z" fill="#F2BC8C"/>
<path transform="translate(1778,333)" d="m0 0 4 1 3 8 1 4 5 14 3 15 8 30 1 13h-1l-3-14-3-12-6-17-3-15-8-18-2-8z" fill="#A87C5B"/>
<path transform="translate(328,112)" d="m0 0 5 1-5 5 2 4 2 2-12-2-9-2-12-2-4-3 1-2z" fill="#A87C5B"/>
<path transform="translate(365,480)" d="m0 0 2 1-8 5-12 5-12 3-19 2h-115v-1l112-1 18-2 21-6z" fill="#F8C291"/>
<path transform="translate(1574,628)" d="m0 0 1 2-13 37-3 8-2-3v-7l3-7 4-13 5-13 2-3z" fill="#F7C190"/>
<path transform="translate(319,440)" d="m0 0 6 3 21-1-2 12-2 6 1 5-3-1-1-4 2-11v-2l-6 1-14-2-10-2v-2l-3 1-9-1v-1z" fill="#A87C5B"/>
<path transform="translate(1784,267)" d="m0 0 2 1-4 12-2 1 1 7-1 3 2 3v6h-3l-1-6h-2l-1-12h-2l-2-4 1-4 5 1 3-3 1-3z" fill="#A87C5B"/>
<path transform="translate(365,480)" d="m0 0 2 1-8 5-12 5-12 3-7 1h-15v-1l18-2 21-6z" fill="#EFB98A"/>
<path transform="translate(1601,378)" d="m0 0 1 2 2 1-3 1 1 8-3 11-2 4-3 1-2 2 2-9z" fill="#E6B082"/>
<path transform="translate(427,394)" d="m0 0 1 3-4 14-3 13-6 10-1-2 6-17 5-18z" fill="#E8B283"/>
<path transform="translate(1825,885)" d="m0 0h2l3 7h2l4 12-1 7h-2l-8-24z" fill="#CD9E76"/>
<path transform="translate(1551,694)" d="m0 0 10 2 4 2-7 4h-6l-2-2v-5z" fill="#F6C090"/>
<path transform="translate(1859,718)" d="m0 0 25 7 7 3v2l-11-3-21-7z" fill="#B68864"/>
<path transform="translate(314,237)" d="m0 0h9l2 7-9-2v-2l-4-2z" fill="#A87C5B"/>
<path transform="translate(1900,953)" d="m0 0 3 3v2h3v2h-41v-1l35-1z" fill="#DAA97E"/>
<path transform="translate(494,307)" d="m0 0 4 1 2 7-1 1 1 18h-1l-4-20z" fill="#EDB788"/>
<path transform="translate(457,569)" d="m0 0 2 1-9 8v6l-2 1-2-4v-5l3-3z" fill="#EFB98A"/>
<path transform="translate(1678,659)" d="m0 0 7 1 21 7 1 2-9-2-10-3-10-4z" fill="#B78A66"/>
<path transform="translate(1830,500)" d="m0 0 2 2 1 7-4 4-3-9v-3z" fill="#CC9D75"/>
<path transform="translate(1801,774)" d="m0 0 11 3 12 4v1l-8-1-8-3-5 1z" fill="#D6A67C"/>
<path transform="translate(482,547)" d="m0 0v3l-10 10-7 6-2-1 4-5 8-6z" fill="#ECB687"/>
<path transform="translate(429,390)" d="m0 0h1l-1 9-6 21-1-4 2-8z" fill="#F8C291"/>
<path transform="translate(1651,400)" d="m0 0 1 3-5 15-1-4v-8l3-4h2z" fill="#EAB485"/>
<path transform="translate(1631,773)" d="m0 0 9 2 10 3v2l-9-2-10-3z" fill="#F5BF8F"/>
<path transform="translate(1820,649)" d="m0 0 9 3v3l-14-2v-2z" fill="#A97D5C"/>
<path transform="translate(427,394)" d="m0 0 1 3-4 13-2 1 2-11z" fill="#E4AE80"/>
<path transform="translate(365,480)" d="m0 0 2 1-8 5-7 1 1-2z" fill="#ECB686"/>
<path transform="translate(422,314)" d="m0 0 2 2 4 11v3l-3-1-3-12z" fill="#ECB686"/>
<path transform="translate(1878,724)" d="m0 0 8 2 5 2v2l-11-3-2-1z" fill="#B98B67"/>
</svg>
