<?xml version="1.0" encoding="UTF-8"?>
<svg version="1.1" viewBox="0 0 2048 1243" width="1280" height="1280" xmlns="http://www.w3.org/2000/svg">
<path transform="translate(674)" d="m0 0h706v71l-2 31-4 35-7 38-8 33-11 35-10 27-12 28-16 33-14 24-11 18-10 15-12 17-10 13-11 14-13 15-9 10-7 8-32 32-8 7-15 13-14 11-10 8-15 11-20 14-21 13-15 9-18 10-36 18-36 15-30 11-33 10-36 9-37 7-38 5-38 3-83 1-4-1zm320 54-27 6-24 7-20 8-16 9-13 10-10 10-7 8-13 15-11 14-12 17-11 18-10 18-8 17-10 26-7 23-6 29-3 23v58l4 28 7 28 9 24 12 25 11 18 9 12 13 15 12 12 11 9 13 9 18 10 15 6 9 3-2-5-15-26-8-18-4-15v-6l-6-10-9-13v-3l7-4-1-5-14-25-8-13v-2l9-5-1-5-12-24-5-12 14-8-1-7-9-31-1-2 5-1 28-13 2-2-9 1-7 2h-4l-7-29-1-4 6-1 40-15 13-5 1-2-27 5-17 4-2-12-3-12v-5l16-6 52-20-3-1-39 8-6 1-4-20 9-4 79-27-1 27-2 22-5 24-5 16-11 28-9 23-10 29-7 24-6 27-3 18-3 29v22l4 31 6 24 7 19 8 17 9 15 3 3 10-2 20-9 18-10 24-15 13-10 10-8 13-12 8-7 7-8 9-10 13-18 9-15 8-16 6-14 6-18 5-23 2-18v-37l-3-26-5-24-8-26-9-21-8-16-11-20-14-21-10-14-16-21-11-14-10-12-11-14-14-17-14-19z" fill="#0265B0"/>
<path transform="translate(914,900)" d="m0 0h142l13 22 15 26 16 27 13 23 9 15 15 26 14 24 12 20 4-5 9-16 14-24 14-25 14-24 16-28 30-52 6-9h140l1 1v280h-85l-1-209-12 20-34 56-31 51-12 20-17 28-14 23-7 11h-73l-9-14-13-22-17-28-19-32-17-28-15-25-17-28-17-29-3-3 1 3v205l-1 1h-85v-280z" fill="#0466B1"/>
<path transform="translate(2,900)" d="m0 0h278l27 2 20 4 16 7 9 7 8 9 7 14 4 18v25l-3 17-4 10-7 9-8 7-14 6-11 3 23 5 12 5 6 4 7 6 6 10 4 16v35l-4 17-5 12-8 11-10 8-14 7-21 5-18 2h-300zm91 63-1 1v44l1 3h159l13-2 8-4 5-6 2-8v-11l-5-10-8-5-10-2zm-1 104v50l1 1h137l42-2 10-4 6-5 3-7 1-5v-9l-4-10-6-5-8-3-5-1z" fill="#0365B1"/>
<path transform="translate(452,900)" d="m0 0h260l38 2 27 4 16 5 16 8 11 9 9 12 7 15 4 13 4 27 1 19v52l-1 25-3 22-6 18-7 13-9 11-11 9-10 6-15 6-19 4-9 1h-303l-1-9v-271zm90 71v141h163l18-3 12-5 9-8 5-8 3-11 1-7v-61l-3-14-4-8-8-8-11-5-16-3z" fill="#0366B0"/>
<path transform="translate(2,1230)" d="m0 0h2045l1 1v12h-2048v-12z" fill="#66B857"/>
<path transform="translate(0,833)" d="m0 0h2048v12h-2048z" fill="#5AB34A"/>
<path transform="translate(1380,279)" d="m0 0h1l-1 105-12 21-16 25-13 18-14 19-11 14-11 13-13 15-11 12-37 37-8 7-15 13-17 14-17 13-19 14-29 19-18 11-21 12-19 10-106 1-4-2 16-6 32-13 30-14 25-13 23-13 22-14 15-10 17-12 21-16 10-8 13-11 8-7 10-9 15-14 20-20 7-8 9-10 9-11 11-13 14-19 13-18 10-15 11-18 11-19 12-23 8-16 10-22 6-15z" fill="#5BB34B"/>
<path transform="translate(1602,1012)" d="m0 0h73l30 2 18 4 11 6 7 6 7 14 2 17h-26l-1-1-1-11-4-8-6-4-11-3-18-2h-80l-21 2-16 3-10 5-5 9-1 13 3 9 5 6 8 4 10 2 12 1 100 1 24 2 18 4 11 6 7 7 5 11 1 3 1 18-2 14-5 10-5 6-12 7-12 4-18 3-10 1-23 1h-50l-27-1-29-3-15-4-10-5-5-4-6-10-2-8-2-20h27l1 15 3 8 6 5 8 3 12 2 25 2h61l36-3 12-3 9-6 4-7 1-5v-13l-3-9-7-6-8-3-6-1-40-1-66-1-30-2-16-3-12-5-9-7-5-8-2-7v-22l3-10 5-9 8-8 12-6 11-3 22-3z" fill="#0668AF"/>
<path transform="translate(1891,1013)" d="m0 0h36l52 72 10 14 13 18 10 14 13 18 12 17 10 13v2h-30l-12-17-11-16-3-4h-163l-10 15-13 19-2 3h-30l1-4 11-15 10-14 14-20 14-19 24-34 26-36 14-20zm17 17-11 15-24 34-13 18-12 17-8 11v1h139l-3-5-65-90z" fill="#0667B0"/>
<path transform="translate(1378,465)" d="m0 0h3l-1 77-12 14-9 10-7 8-9 9-7 8-18 18-8 7-17 16-14 12-16 13-18 14-81 1v-3l16-10 20-14 12-9 13-10 10-8 13-11 11-9 7-7 8-7 12-11 25-25 7-8 13-14 9-11 11-13 10-13 9-12z" fill="#5BB34B"/>
<path transform="translate(1378,606)" d="m0 0h3l-1 65h-68l2-4 9-7 12-11 10-9 32-32z" fill="#5BB34B"/>
<path transform="translate(980,140)" d="m0 0 3 1 2 19v5l-9 3-56 11h-4l-2-15 53-19z" fill="#0969B0"/>
<path transform="translate(975,106)" d="m0 0h2l4 21-1 3-43 11h-5v-15l14-7 27-12z" fill="#0768B0"/>
<path transform="translate(967,75)" d="m0 0h3l4 18-8 3-26 7h-4l-3-9 8-5 22-12z" fill="#0B6BAF"/>
</svg>
