<?xml version="1.0" encoding="UTF-8"?>
<svg version="1.1" viewBox="0 0 1092 960" width="1280" height="1280" xmlns="http://www.w3.org/2000/svg">
<path transform="translate(0)" d="m0 0h1092v960h-1092z" fill="#FCFCFC"/>
<path transform="translate(357,112)" d="m0 0h329l45 1 2 1-2 24-4 26-6 25-9 27-8 18-12 23-10 15-12 16-18 20-7 8-8 7-13 12-15 11-8 6-9 6-13 8-16 9-17 9-24 11-26 10-24 8-28 8-29 7-27 5-19 3h-13v-323z" fill="#1F63AB"/>
<path transform="translate(500,142)" d="m0 0h8l6 4 8 11 7 9 12 13 9 11 12 15 7 11 6 14 5 19v37l-5 18-8 16-7 10-11 12-13 12-18 11-11 6-1 1h-13l-9-8-6-10-4-11-2-8v-28l3-14 4-15 8-20 8-16 8-30 2-18 1-5v-7l-3-15-6-8-2-2h-9l-5 4v5l4 3v2l-9 3v6l2 4v3l-9 4 1 5 6 5v2l-12 3-4 3v6l9 1 1 3-10 3-8 4-1 5 3 7 3 3v3l-12 6v7l7 4-1 3-8 3-2 2v6l5 5-1 4-4 4-1 4 3 5 6 3 1 3-5 6v6l4 4 2 1 2 19 6 5 4 9 3 10 3 5v3l-5-1-10-5-12-8-11-8-8-8-11-16-8-16-4-13v-46l3-8 2-11 7-16 8-15 9-12 9-11 10-10 17-12 16-8 13-4z" fill="#FDFDFD"/>
<path transform="translate(59,496)" d="m0 0h975l2 1v6l-73 1h-894l-9-1-1-1z" fill="#6EBB3F"/>
<path transform="translate(60,656)" d="m0 0h975l1 1v5l-1 1-141 1h-692l-142-1-1-1v-5z" fill="#6EBB3F"/>
<path transform="translate(738,250)" d="m0 0 2 1v52l-8 11-11 14-11 12-7 8-27 27-11 9-16 13-23 15-17 10-29 14h-51l-1-2 15-6 16-8 24-13 15-9 27-18 12-9 22-18 12-11 21-21 11-14 10-13 12-19 11-20z" fill="#73A55A"/>
<path transform="translate(64,531)" d="m0 0h46l8 3 7 6 3 7v17l-4 6-8 6-1 2 7 2 9 9 2 10-1 14-6 8-10 6-5 1h-47l-2-3 9-2 1-87-8-2z" fill="#2164A9"/>
<path transform="translate(249,531)" d="m0 0h25l2 3 4 13 12 33 9 27 2-4 8-23 14-39 4-10h23v3l-6 2h-2v88h7l2 1v3h-32v-4l8-3 1-1 1-65-1-10-4 12-16 45-9 24-4 2-4-6-16-46-12-31v68l1 8 10 5-1 2h-24l-3-1 1-3 10-2v-84l-10-5z" fill="#2064AA"/>
<path transform="translate(738,331)" d="m0 0h2v45l-4 6-5 6h-2l-2 4-18 18-11 9-14 10-12 7-46 1-9 1 4-3 24-14 21-14 16-12 13-11 8-7 9-9 11-14 8-11 5-8z" fill="#73A55A"/>
<path transform="translate(176,536)" d="m0 0h19l8 4 8 9 4 8 1 4v35l-4 11-6 9-5 4-7 3-5 1h-13l-1-59v-23z" fill="#FDFDFD"/>
<path transform="translate(153,531)" d="m0 0h43l9 2 11 7 8 9 5 12 3 9v14l-4 16-6 12-6 7-9 6-4 2-6 1h-44v-4l7-2 1-1v-81l-4-4-4-2zm23 5-1 6v23l1 59h13l9-3 7-4 6-8 4-9 1-4v-35l-4-10-6-8-6-5-5-2z" fill="#2265A8"/>
<path transform="translate(59,496)" d="m0 0h975l-3 2h-955l-14 1v2l967 1v1l-66 1h-894l-9-1-1-1z" fill="#74A55B"/>
<path transform="translate(913,528)" d="m0 0 3 1 14 40 16 45 3 9 9 1 1 4h-33l-2-1 1-3 7-2-1-9-4-12-33-1-6 18v4l9 3v3h-26l-2-2 2-2 8-1 5-12 17-51 11-31z" fill="#2165A9"/>
<path transform="translate(593,531)" d="m0 0h21l3 5 11 18 15 23 11 17 4 6 2 1-1-64-9-2-1-4h26l-1 4-10 2v94h-3l-4-8-26-39-10-16-8-12-4-5v-2h-2l1 75 8 1v3h-23v-4h7l-1-88-7-2z" fill="#2164A9"/>
<path transform="translate(818,528)" d="m0 0h10l13 4 8 7 3 7v12l-2 6-5-1-2-12-5-9v-2l-4-2-8-3h-7l-8 3-3 1-2 4-5 8-3 9-1 6v22l5 19 6 10 4 4 8 3h12l5-2 1-1v-15l-1-12-1-5-8-2v-3h32v3l-7 3-1 30-1 3-13 6-7 2h-14l-4-2-7-1-9-7-6-7-6-12-1-4v-32l2-9 5-10 9-10 8-6z" fill="#2164A9"/>
<path transform="translate(692,531)" d="m0 0h65l1 3v24l-4 1-1-1-3-14-7-7h-26v39l12-2 6-7 1-7 4 1v35l-4-1-2-8-5-6-13-1v44l22-1 8-1 5-4 4-10 1-7 4-1v27l-1 1h-66l-2-2 2-2 7-2 2-2v-80l-5-4-4-2z" fill="#1F63AB"/>
<path transform="translate(503,531)" d="m0 0h64l1 1v28h-3l-5-15-4-6-4-2h-27l-1 39 13-1 5-3 3-12h4l1 35-3 1-2-1-2-12-4-2-15-1 1 43h28l5-3 5-6 3-13 4-1 1 1v26l-5 1h-63l-2-1v-3l10-1 1-2v-85l-8-1z" fill="#2064AA"/>
<path transform="translate(449,528)" d="m0 0h8l14 5 5 6v25h-3l-4-13-5-9v-2l-4-2-7-3-10 1-6 5-1 2v7l5 9 9 8 11 8 17 17 2 4v20l-3 5-6 5-11 4-3 1h-12l-9-3-10-4-2-2v-28l3 1 7 17 5 8 8 4h13l6-4 2-4v-10l-2-5-6-7-13-10-10-9-7-7-3-6-2-10 4-12 6-7 9-4z" fill="#2164A9"/>
<path transform="translate(969,531)" d="m0 0h34v3l-10 3-1 87 21-1 9-1 5-2 2-5 2-6 1-8 4-1v27l-1 1h-66v-4l11-1-1-86-10-4z" fill="#1F63AB"/>
<path transform="translate(86,580)" d="m0 0h18l9 6 6 8 1 3v10l-4 8-8 7-7 2h-14l-1-1z" fill="#FDFDFD"/>
<path transform="translate(60,656)" d="m0 0 2 1v3l4 1 207 1h756v1l-135 1h-692l-142-1-1-1v-5z" fill="#74A55B"/>
<path transform="translate(66,656)" d="m0 0h969l1 1v5l-4-4h-566l-400-1z" fill="#74A55B"/>
<path transform="translate(86,536)" d="m0 0h16l8 4 5 8 1 3v9l-4 8-6 5-3 2-7 1h-10l-1-4v-35z" fill="#FDFDFD"/>
<path transform="translate(909,552)" d="m0 0h2l6 16 8 24v2h-29l1-5z" fill="#FDFDFD"/>
<path transform="translate(738,401)" d="m0 0h2v35h-35l1-3 8-6 9-9h2l1-3 5-5 6-7z" fill="#73A55A"/>
<path transform="translate(439,688)" d="m0 0 7 1 5 5 1 8-2 5-7 8h-5l2-5 4-5 1-3v-8l-3-2-5 1-5 7-2 6 1 10 1 3h17v3l-2 1-15 1-8-1 2-4v-3l-2-4v-9l3-6 5-5z" fill="#2064AA"/>
<path transform="translate(791,688)" d="m0 0 7 2 5 5 1 6-5 10-5 4-5 1 1-4 6-8v-9l-1-2-5-1-5 5-4 8v11l-5-1-1-2v-10l4-8 5-4z" fill="#2063AA"/>
<path transform="translate(325,689)" d="m0 0h12l2 2-6 1-2 7 9 1 1 4h2l1 4-3 5-4 3h-4l1-4 2-2v-7l-7-1-2 13-1 1h-5l-1-3 5-17 1-2z" fill="#2064AA"/>
<path transform="translate(372,584)" d="m0 0h31l1 1v6l-1 1h-25l-8-1v-6z" fill="#1F63AB"/>
<path transform="translate(509,689)" d="m0 0h11l4 2-1 5-3-1-2-3h-8l-2 3v4l8 1v7l-4-2-6-2-2 6-1 7h-6l-1-3 6-18 1-5z" fill="#1F63AB"/>
<path transform="translate(585,689)" d="m0 0 10 1 2-1h9l2 2-1 4-5 6-3 3-4-1 5-5 3-2 1-5-7 1-4 8 1 2-5 10-1 3-6 1 2-10 3-8v-6z" fill="#1F63AB"/>
<path transform="translate(817,689)" d="m0 0 5 1 9 14h4l-1 8-2 3-4-1-3-7-5-8-2-1-3 18-4-1 3-11 3-12z" fill="#2064AA"/>
<path transform="translate(722,689)" d="m0 0 5 1 4 5 9 16-1 3h-5l-8-15-3 1-3 9v6l-4 1 1-8 4-11 1-1z" fill="#2164A9"/>
<path transform="translate(285,688)" d="m0 0 2 1 3 16 2 10-1 1h-6l-1-1v-17l-5 5-6 8-3 5h-2l2-5 7-11 3-3h3l1-8z" fill="#2164A9"/>
<path transform="translate(366,692)" d="m0 0h4l1 3 2 16 2 2v3l-7-1-3-13-2-1-3 5-4 5-3 4h-2l1-4 7-8 6-10z" fill="#1F63AB"/>
<path transform="translate(464,689)" d="m0 0h10l-1 4-5 14 1 9-6-1-3-5 3-10v-10z" fill="#2164A9"/>
<path transform="translate(548,689)" d="m0 0h5v2l9-2 2 2-5 2-3 8-5 14-1 1h-7l4-8 2-9 2-3 1-5h-4z" fill="#2064AA"/>
<path transform="translate(392,689)" d="m0 0 6 1 6 11 1 4 5-3 2-1-1 7-3 7-4-1-3-8-7-9-3-7z" fill="#2064AA"/>
<path transform="translate(636,689)" d="m0 0 6 1 5-1-7 19-1 7-7 1 1-7 5-16v-2h-2z" fill="#2164AA"/>
<path transform="translate(240,689)" d="m0 0 7 1 8-1-6 9-3 10-3 7-7 1 2-5 2-4 2-8 2-7-4-2z" fill="#2164AA"/>
<path transform="translate(758,689)" d="m0 0h8l-2 11-5 15-7 1 1-5 5-15z" fill="#1F63AB"/>
<path transform="translate(690,689)" d="m0 0h5l-7 16v6l1 4-7-1-2-2 1-6 3-8 1-8z" fill="#2063AB"/>
<path transform="translate(564,691)" d="m0 0 7 1 4 5v6l-5 8-5 4-5 1 1-4 7-8v-8z" fill="#2366A8"/>
<path transform="translate(703,689)" d="m0 0h7l-1 4-8 20-3 3h-3l2-4 3-4 3-8z" fill="#2265A8"/>
<path transform="translate(484,689)" d="m0 0h5l1 2-6 15-4 9-5 1 5-8 3-8z" fill="#2064AA"/>
<path transform="translate(599,690)" d="m0 0 5 1v5l-8 6-4-2 4-8z" fill="#FDFDFD"/>
<path transform="translate(601,689)" d="m0 0h5l2 2-1 4-5 6-3 3-4-1 5-5 3-2 1-5h-3z" fill="#2668A4"/>
<path transform="translate(280,697)" d="m0 0h2l-2 5-7 9-3 5h-2l2-5 7-11z" fill="#1F63AC"/>
<path transform="translate(817,698)" d="m0 0 1 2-3 16-4-1 3-11z" fill="#1F63AC"/>
<path transform="translate(704,700)" d="m0 0 1 3-5 12-5 1 2-4 3-4z" fill="#1F63AC"/>
<path transform="translate(667,689)" d="m0 0 5 2-2 7-4-2-1-1v-5z" fill="#2467A6"/>
<path transform="translate(484,689)" d="m0 0h5l1 2-4 9h-2z" fill="#2266A8"/>
<path transform="translate(836,689)" d="m0 0h6l-2 6-3 5h-1l-1-10z" fill="#2366A8"/>
<path transform="translate(744,688)" d="m0 0 2 1-3 11-2 2v-11z" fill="#2164A9"/>
<path transform="translate(410,689)" d="m0 0h7l-1 5-2 3h-2z" fill="#2164A9"/>
<path transform="translate(391,702)" d="m0 0h1l-1 13-4-1 2-10z" fill="#1F63AC"/>
<path transform="translate(720,703)" d="m0 0 1 2-1 10-4 1 1-8z" fill="#1F63AC"/>
<path transform="translate(652,710)" d="m0 0 4 1v3l-2 1h-6l1-3z" fill="#1F63AC"/>
<path transform="translate(340,692)" d="m0 0 4 1 1 5-3 2-2-4z" fill="#1F63AC"/>
<path transform="translate(515,711)" d="m0 0h5l-1 4-5 1-2-2z" fill="#2567A6"/>
<path transform="translate(604,710)" d="m0 0h2l-2 5-5 1-1-3z" fill="#1F63AC"/>
</svg>
