<?xml version="1.0" encoding="UTF-8"?>
<svg version="1.1" viewBox="0 0 1280 1028" width="1280" height="1280" xmlns="http://www.w3.org/2000/svg">
<path transform="translate(411,65)" d="m0 0h447l2 3-1 35-3 34-6 36-8 30-9 27-11 26-8 17-9 16-12 20-10 14-12 16-11 13-7 8-11 12-13 13-8 7-14 12-20 15-18 12-15 9-22 12-31 14-25 9-33 9-25 5-33 4-33 2h-42v-429z" fill="#2861AB"/>
<path transform="translate(608,103)" d="m0 0h8l14 17 7 9 11 13 13 17 12 17 13 21 8 16 7 19 5 23 1 8v36l-3 19-7 21-10 19-12 16-11 12-12 11-17 12-18 10-18 8-8 1-6-9-6-13-5-16-4-21v-34l4-24 7-28 11-31 7-17 6-20 2-16 1-22-11 4-36 12-8 3 1 13 15-3h6l-4 4-28 11 1 9 1 8 10-2h8v2l-26 10-1 2 4 15v3l4 1 3-1v3l-14 6-1 2 5 17 1 5-4 4-3 2 1 6 8 18-2 5-3 1 8 16 5 9-1 6h-2l4 7 4 6 4 17 8 17 6 9v4l-8-1-16-8-12-9-5-4v-2h-2v-2h-2l-9-11-11-15-8-14-6-13-6-20-3-17-1-10v-27l2-25 4-22 5-16 5-12 8-16 7-12 12-16 9-11 12-13 12-11 17-9 20-6z" fill="#FDFDFD"/>
<path transform="translate(101,643)" d="m0 0h86l21 3 15 5 11 7 7 9 4 12 1 12-2 12-4 8-7 8-14 7-6 2 15 6 13 8 7 7 5 10 2 8v12l-3 12-7 12-9 8-12 6-17 4-23 2h-70l-13-1-1-3 1-2 16-3 6-4 2-7 1-34v-78l-1-31-3-6-5-3-16-3-1-4zm59 10-6 3v68l35-1 13-4 8-6 5-6 3-9v-15l-3-10-6-9-9-6-9-3-15-2zm-6 81v73l4 4 5 1h23l15-3 10-5 6-5 4-7 2-7 1-11-1-12-4-10-4-5-9-6-15-5-21-2z" fill="#2D65AD"/>
<path transform="translate(279,643)" d="m0 0h84l23 3 18 5 16 8 10 7 8 7 9 13 5 10 4 14 2 17v13l-2 14-5 16-7 13-8 10-7 7-13 9-13 6-14 4-19 3-16 1h-67l-8-1-1-3 3-3 11-2 6-3 3-9 1-38v-70l-1-31-3-9-6-3-13-3-1-4zm58 10-6 3-1 1-1 147 2 5 2 2 5 1h18l16-2 18-6 13-8 9-8 8-12 5-14 3-14v-28l-3-15-6-15-7-10-6-7-13-9-10-5-13-4-14-2z" fill="#2E65AD"/>
<path transform="translate(93,850)" d="m0 0h1054l1 1v7l-6 1h-1036l-14-1v-7z" fill="#75C12A"/>
<path transform="translate(1144,597)" d="m0 0 4 1v8l-3 1h-1038l-14-1-1-1v-7z" fill="#75C329"/>
<path transform="translate(858,242)" d="m0 0h1v66l-12 22-14 22-14 19-11 13-9 11-10 10-4 5-8 7-10 10-11 9-12 10-18 13-17 11-21 12-17 9-10 4h-65v-2l26-9 25-11 16-8 17-9 19-12 14-10 16-12 13-11 8-7 15-14 14-15 11-13 8-10 13-18 11-17 14-25 13-27 6-15z" fill="#71A641"/>
<path transform="translate(471,643)" d="m0 0h76l1 4-7 2-11 3-5 4-1 3-1 15v90l2 18 5 13 5 7 9 6 7 3 5 1h25l12-3 9-5 7-7 5-10 3-16 1-15v-80l-2-15-3-6-8-4-11-3-1-5h62l1 4-9 3-9 4-4 5-2 7-1 23-1 83-4 18-6 12-9 10-11 7-11 4-17 3h-21l-16-3-12-5-9-7-7-7-8-16-3-11-1-8-1-107-4-8-5-3-14-3-1-4z" fill="#2A63AC"/>
<path transform="translate(970,640)" d="m0 0h23l20 4 15 4 6-1 8-7h4l1 7 2 53-5 1-4-6-6-13-6-10-7-8-11-7-12-4-5-1h-18l-12 3-10 5-11 9-9 13-5 11-4 13-3 21v14l3 20 5 15 7 12 11 12 11 7 9 4 10 2h20l16-4 16-8 12-9 5-4 5 1v5l-5 6-8 7-14 9-13 6-15 4-8 1h-16l-19-3-16-6-14-9-10-9-10-13-7-14-5-16-2-17v-13l2-15 5-16 8-16 9-11 10-10 14-9 11-5 9-3z" fill="#2B63AC"/>
<path transform="translate(1065,643)" d="m0 0h79l1 4-6 2-13 3-5 4-1 4v146l3 5 5 3 16 3 1 5-1 1h-66l-13-1v-5l17-3 6-4 2-8v-140l-3-8-6-3-15-3-2-1z" fill="#2C64AC"/>
<path transform="translate(857,361)" d="m0 0h2l1 3-1 44-11 14-13 15-15 16-17 16-11 9-16 13-6 4h-50l1-3 15-9 20-14 18-14 14-12 8-8h2l2-4h2l1-3 5-5h2l2-4 9-9 9-11 13-16 8-12z" fill="#71A641"/>
<path transform="translate(737,753)" d="m0 0h67v15l-2 2h-64l-1-1z" fill="#3369AF"/>
<path transform="translate(858,452)" d="m0 0 2 4-1 38-1 1h-42l6-7 10-9 22-22z" fill="#71A641"/>
<path transform="translate(318,897)" d="m0 0h6l-3 5-8 28-1 2h15l4-4 2-3h2l-1 5-1 3 4-2 13-22 5-8 2-4 3 1 5 28 2 9-1 1h-6l-2-1 1-6-1-6-12 1-3 6-1 5-6 1-32-1 2-5 8-29 1-2-4-1zm36 11-5 8-1 5 9-1v-8l-2-4z" fill="#3167AE"/>
<path transform="translate(515,897)" d="m0 0h12l5 3 4 7v9l-5 10-4 5-6 4-9 1v3l11 2 10-3-2 4-6 4h-11l-8-1h-7l1-3 6-3-6-8-2-4v-10l6-11 9-8zm3 2-8 7-5 11-1 10 3 6 3 2 5-1 6-4 4-5 4-9 1-9-3-6-2-2z" fill="#3168AE"/>
<path transform="translate(604,157)" d="m0 0h4l1 15-1 2-38 7h-5l-1-1v-7l8-5z" fill="#2861AB"/>
<path transform="translate(394,897)" d="m0 0h17l6 3 2 3-1 8-4 3-1 5h2l1 2v6l-2 4-5 4-22 1v-4l8-28zm11 2-4 5-2 10h10l3-4v-8l-3-3zm-6 18-3 5-1 3v7l1 1h7l5-3 1-3v-8l-2-2z" fill="#2F66AD"/>
<path transform="translate(639,897)" d="m0 0h20l7 4 4 6 1 8-3 9-6 7-8 4h-23l2-5 7-25v-5zm11 2-3 4-7 24v5l1 1h9l8-4 4-6 2-7v-7l-3-6-4-4z" fill="#2F66AD"/>
<path transform="translate(889,897)" d="m0 0h12l6 5 2 4v10l-5 10-5 6-6 4-3 1h-10l-6-4-3-6v-8l3-7 6-9zm3 2-6 4-6 9-3 12 1 6 5 4h6l8-7 4-8 2-8-1-7-5-5z" fill="#2E65AD"/>
<path transform="translate(819,897)" d="m0 0h5l4 5 9 21 2-3 4-17v-6h7l-7 24-4 14h-4l-11-26-2-1-4 18-1 9-6 1v-4l5-16 4-13z" fill="#346AAE"/>
<path transform="translate(920,896)" d="m0 0 6 2 8 16 3 10h2l4-17 2-10 5-1 1 2-4 11-6 19-1 7h-4l-11-26-1-1-5 15-1 10v2l-6 1-1-4 4-10 5-16-1-9z" fill="#3168AD"/>
<path transform="translate(492,896)" d="m0 0h4l-1 5-5 16-4 13-2 6h-2l-12-28-1-1-5 22v5l-3 2-5-1 3-4 4-18 3-9-1-7h6l8 16 4 9 2 1 2-11 3-15z" fill="#3167AD"/>
<path transform="translate(576,896)" d="m0 0 3 1-2 9-6 20-5 8-5 3h-10l-5-3-4-5 1-8 4-14v-7l-1-3h13l-5 10-5 19 1 5 4 2h6l5-4 6-18 2-14z" fill="#3268AF"/>
<path transform="translate(777,897)" d="m0 0h11l-8 24v10l4 2h6l5-4 5-14 3-14v-4h7l-9 30-6 8-4 2h-10l-6-3-2-3v-9l5-18 1-6z" fill="#3167AD"/>
<path transform="translate(602,135)" d="m0 0h2l2 8v8l-23 5-7 1-1-1v-8l8-5z" fill="#2861AB"/>
<path transform="translate(590,897)" d="m0 0h25l1 1-1 7-2 1-2-5-2-1h-9l-3 6-3 12-3 9v5h13l7-7v7l-2 3-26 1-2-1 2-5 7-24z" fill="#2A63AC"/>
<path transform="translate(681,897)" d="m0 0h27l1 2-2 7h-2l-1-6h-12l-4 13-6 19h15l7-7-1 9-1 1-25 1-4-2 4-8 6-22z" fill="#3469AE"/>
<path transform="translate(442,897)" d="m0 0 3 1 6 32 3 5-8 1-4-1 1-3v-7l-1-1h-11l-3 6-1 5-6 1v-4l6-9 10-17zm-4 12-5 9v2h10l-2-10z" fill="#3168AD"/>
<path transform="translate(731,897)" d="m0 0h12l-5 15-6 20h14l5-4 2-3h2l-1 5-2 5-25 1-4-2 4-8 7-27-3-1z" fill="#3369AE"/>
<path transform="translate(318,897)" d="m0 0h6l-3 5-8 28-1 2h15l4-4 2-3h2l-2 10h-29l2-5 8-29 1-2-4-1z" fill="#2D65AC"/>
<path transform="translate(861,897)" d="m0 0h8l-3 9-6 22v7l-2 1h-7l-1-3 4-9z" fill="#3167AC"/>
<path transform="translate(596,115)" d="m0 0 4 1 2 11-19 5h-7l-1-2 3-5 14-8z" fill="#2861AB"/>
<path transform="translate(839,429)" d="m0 0 2 1-9 10-11 12-7 7-8 7-11 10h-2l1-4h2l1-3 6-5 5-6 7-6 5-6 7-6 5-5z" fill="#75BF2C"/>
<path transform="translate(605,490)" d="m0 0 8 1v2l44 1v1h-61v-2z" fill="#75C329"/>
<path transform="translate(783,408)" d="m0 0h2v2l-8 7-10 10-11 9h-3l1-3 6-5h2l1-3 5-3 7-6 5-6z" fill="#75C229"/>
<path transform="translate(826,485)" d="m0 0 2 4-3 1v2h2v2h29v1h-40l6-7z" fill="#75C328"/>
<path transform="translate(734,450)" d="m0 0 3 1-17 12-16 10h-2l1-3 8-4 2-2 5-4 5-2 4-2v-2z" fill="#75BF2C"/>
<path transform="translate(733,485)" d="m0 0 1 3-1 5 6 1v1h-19l1-3z" fill="#75C22A"/>
<path transform="translate(763,897)" d="m0 0h4l-1 12-2 4h-2v-15z" fill="#386DB1"/>
<path transform="translate(693,897)" d="m0 0h15l1 2-2 7h-2l-1-6-12-1z" fill="#2F66AD"/>
<path transform="translate(605,910)" d="m0 0h2l-1 7-2 3-6-2-1-3 6-3z" fill="#4375B5"/>
<path transform="translate(783,481)" d="m0 0 3 2-14 11-4-1 4-1 1-3 3-1 5-6z" fill="#75C22A"/>
<path transform="translate(697,910)" d="m0 0h2v7l-1 2-7-1 2-4z" fill="#366BB0"/>
<path transform="translate(858,452)" d="m0 0 2 4-1 5-1-2-6 1z" fill="#75BF2C"/>
<path transform="translate(858,242)" d="m0 0h1l-1 14-3-4 2-8z" fill="#75C12B"/>
<path transform="translate(533,937)" d="m0 0" fill="#FDFDFD"/>
</svg>
