<?xml version="1.0" encoding="UTF-8"?>
<svg version="1.1" viewBox="0 0 2048 1286" width="1280" height="1280" xmlns="http://www.w3.org/2000/svg">
<path transform="translate(0)" d="m0 0h2048v1286h-2048z" fill="#FDFCFC"/>
<path transform="translate(1006,43)" d="m0 0 2 1 1 92v846h-16l-46-1h-249l-366 1-108 1-1-1v-937l1-1 453 1h132l195-1z" fill="#094D96"/>
<path transform="translate(1152,813)" d="m0 0h675l1 4-1 56v116l-3 1-84 1h-495l-165-1-16-1-1-1v-174z" fill="#BF2C35"/>
<path transform="translate(787,132)" d="m0 0h28l21 7 3 3v8l-6 9-9 8-10 4-24 4-20 7-26 11-15 7-23 11-27 16-14 10-32 24-11 8-17 14-14 12-18 18-11 14-10 15-13 16-8 10h-2l-1 3-5 4-9 14-5 10-11 18-12 23-14 34-5 13-6 15-12 42-2 13h-2l-1 13-1 4h-2l-1 11-5 38-2 22 1 22 6 29v10h2l4 14 4 21 5 11 2 5 3 2 7 14 11 15 12 13 11 9 9 6 12 6 14 6 16 4 18 2h20l18-3 11-1 18-6 21-9 29-14 27-13 10-3 8-4 4 2 4 11v30l-2 9-6 10-5 5-8 7-22 12-21 8-25 8-40 12-28 8-9 3-5 1h-24l-20-4-21-6-9-2v-2l-9-3-16-8-14-8-12-8-5-5-14-13v-2l-3-1-10-15v-3h-2l-11-20-3-3-5-10-6-20-3-12-4-24-5-24-2-13-1-18v-23l2-34 5-41 5-28 3-16h2l2-14 6-27 2-6h2l2-9 4-13 7-15 4-10 3-10 2-4h2l3-10 1-4 3-3 7-16 10-18 6-9 2-5 2-2 2-7h2l2-6 6-8 8-12 11-13 7-8 12-13 15-16 30-30 8-7 10-9 11-9 14-11 14-9 11-7 9-4 4-5 9-4 17-9 20-8 16-6 31-13 28-11 21-7z" fill="#973355"/>
<path transform="translate(1315,76)" d="m0 0h20l13 3 11 6 8 8 10 15 11 22 9 23 8 24 3 26 1 20v49l-2 21-5 16-10 22-7 16-10 15-7 9-12 12-11 7-13 4h-20l-10-4-16-12-13-12-10-12-8-14-5-11-8-32-5-32v-61l4-27 6-25 6-17 8-16 9-14 15-16 10-7 14-5z" fill="#0F3F80"/>
<path transform="translate(1061,462)" d="m0 0h28l60 1 27 1 11 4 7 8 9 16 6 18 3 16 1 10v11l-3 16-4 8-10 14-1 7 12 21 8 18 5 15 1 18-1 14-6 23-5 13-10 19-9 10-5 2-6 1-19 1-67 1h-30l-1-221z" fill="#094D96"/>
<path transform="translate(817,253)" d="m0 0 3 1-1 7-4 9-7 9h-2l-2 5-11 11-8 7-12 11-13 12-8 8-9 12-5 7v7l5 12 9 15 13 17 16 20 8 13 3 8v6l-9 15-9 10-8 7-18 13-14 10-19 13-19 12-12 8-28 21-19 14-13 12-7 8-5 4-2 4v7l4 6 6 5v2l4 2 7 8 9 14 7 16 5 10 3 8v11l-7 9-10 6-15 6-13 2-11 7-13 12h-2l-2 4-9 8-11 9-3 4h-2l-2 4-2 3-5 3-4 6-7 5-5 2h-6l-7-5-6-9-2-4v-7l4-9 3-5h2l2-4 15-11 10-6 14-10 13-12h2l2-5 4-6 1-3v-10l-4-8-8-9-8-7-7-10-4-13v-26l4-17 10-19 10-13 4-5 8-7 8-8 13-10 19-14 9-8 14-10 22-18 15-13 7-6 4-6 1-8-4-10-13-18-8-14-4-13-3-14v-9l7-14 11-12 9-15 4-7 7-9 7-6 19-8 24-13 13-8 9-4 22-9 8-2z" fill="#4D3F7A"/>
<path transform="translate(1436,81)" d="m0 0h52l46 1 13 2 6 5 7 8 7 10 7 14 5 16 2 13v38l-3 14-6 19-5 10-5 6-9 5-10 5-3 5v6l8 16 8 14 14 22 2 10 6 20 7 19 3 13 1 17-22 2h-11l-4-5-5-13-11-22-18-44-7-16-9-12-8-10-11-12-6-4h-1l-2 13-1 15-2 103-1 1h-27l27 2-2 4h-15l-14-2-4-1v-306z" fill="#094D96"/>
<path transform="translate(1006,43)" d="m0 0 2 1v31l-1 64h-1l-3-21-1-14-1-9-1-4h-2l-2-4-7-2-4-4-1 2-11-13-5-3h-2l-1 2-9-1v-2l-7 1-9-1-35-1-4-1h-61l-17-2-2-1-5 2-3 1-9-1-1-2-7-1 1 2h-9l-17-2-16-1h-36l-17-1h-15l-31-1h-14l-38-1-5-1h-53l-2 1h-31l-88 1h-98l-45-1-3-1h-11l-13 3-4 4-5 14-2 5-4 19-1 14v34l1 21 2 16 1 4 1 81v46l1 32v48l-1 8 1 17v84l1 34v71l-1 25v26l-1 36v65l-1 37 1 39v27h-2l2 4 1 3v18l-1 5 1 1-1 19h2l3 20 3 7 4 11-1 2 2 4v9l-7 6-6 1-2 5-13 2h-6v-937l1-1 453 1h132l195-1z" fill="#103F80"/>
<path transform="translate(1797,460)" d="m0 0h16l-2 6-9 16-13 22-14 19-11 15-10 16-7 9-4 10 1 9 10 19 11 28 13 27 9 20 9 17 11 23 9 17 11 12 1 5-26-2-42-1-3-21-5-12-10-21-5-12-9-14-9-30-5-13-3-3-5 1-8 16-4 6-8 9-2 9v84l-3 2h-37l-2-7-1-79-1-114v-65l1-20h41l1 3 1 74v38l1 4 5-5 8-14 11-23 10-18 9-12 11-16 14-22 6-7 8-2z" fill="#094D96"/>
<path transform="translate(1474,460)" d="m0 0 9 2 7 10 8 22 7 21 6 9 7 8 2 5 3 12 6 16 7 17 5 14 6 14 9 26 4 6 5 3 2-7 1-28-1-147 9-1h21l1 4 1 82v167l1 32h-33l-9-2-4-8-6-20-17-37-12-30-9-23-8-16-7-19-5-12-6-10-1-3h-2v15l1 8 1 24 2 117v16l-3 1h-29l-7-1-3-18v-14l2-1 2 1v-27l-1-18v-18l1-24 1-33 1-19v-21l-1-28h-3v10l-1 5h-1l-1-10-1-1v-31l1-31 1-5 4-1h9z" fill="#103F80"/>
<path transform="translate(1735,75)" d="m0 0h18l12 3 10 5 11 9 9 14 12 23 5 15 3 16v10l-2 2-22 4-12-1-5-4-7-20-6-10-9-8-8-3h-14l-7 4-7 10-3 11v10l3 9 4 6 9 6 20 7 19 10 11 8 10 9 10 10 9 11 7 10 11 21 5 15v20l-5 15-7 13-13 19-11 13-13 13-13 9-10 5-9 2h-18l-11-4-9-6-9-9-8-10-11-19-6-20-5-27v-11l4-5 6-2h17l5 2 3 4 8 26 5 12 6 9 9 6 10 1 10-5 9-8 4-8 4-16-1-16-4-8-5-5-11-8-15-10-11-6-15-11-10-9-8-9-7-14-4-15-2-13v-43l3-14 11-23 11-14 8-7 9-4z" fill="#094D96"/>
<path transform="translate(1318,460)" d="m0 0 16 1 11 2 5 3 6 12 7 25 9 30 13 57 7 28 12 40 7 28 5 19 5 15 5 23v4l-36 1-9-1-6-26-4-28-2-6-2-1-25-1h-48l-3 6-7 36-2 17-2 2-4 1h-42l3-11 14-50 7-28 7-34 5-20 1-3 4-4 4-13 16-64 7-27 7-20 6-10z" fill="#094D96"/>
<path transform="translate(1142,75)" d="m0 0 14 1 12 3 10 5 8 9 12 22 9 20 5 16 2 8v7l-5 6-19 10-6-1-7-9-11-23-5-6-9-6-10-5-6-1-4 2-12 18-4 5-5 4h-2l-2 4-4 9-3 19-2 24v38l2 24 3 21 4 10 13 17 6 8 10 7 7-1 13-8 6-7 16-32 4-9 4-6 4-2 5 1 8 5 7 11 3 5v10l-4 17-6 18-8 16-11 14-8 8-13 9-10 4-9 2h-7l-12-4-17-10-12-12-10-15-11-23-5-17-5-24-3-26v-51l3-30 5-26 10-30 8-15 10-16 7-8 10-6 11-5z" fill="#0F3F80"/>
<path transform="translate(787,132)" d="m0 0h28l21 7 3 3v8l-6 9-9 8-10 4-24 4-20 7-26 11-15 7-23 11-27 16-14 10-32 24-11 8-17 14-14 12-18 18-11 14-10 15-13 16-8 10h-2l-1 3-5 4-9 14-5 10-11 18-12 23-14 34-5 13-6 15-12 42-2 13h-2l-1 13-1 4h-2l-1 11-5 38-2 22 1 22 6 29v10h2l4 14 4 21 5 11 2 5 3 2 7 14 11 15 12 13 11 9 9 6 12 6 14 6 16 4 18 2h20l18-3 11-1 18-6 21-9 29-14 27-13 3 1-15 8-13 6-16 8-28 13-18 7-19 5-11 2-12 1h-10l-20-2-22-6-16-7-14-8-13-10-9-9-5-4-4-7-4-5v-2l-3-1-5-7-1-5-8-16-4-10-7-31-6-18-5-29v-21l3-28 2-21 3-19 6-22 3-12 6-22 2-6 2-14 9-26 11-28 11-22 14-23 13-21 4-11-2-4 1-5 2-3h2l2-4 7-9 7-8 8-10 2-1v-3l11-13 1-4-6-2v-7l-5 2h-3v2l-6 1-4-1-10 9-9 8-3 5h-2l-2 4-3 4-1 4h-3l-2 5-7 11-4 6h-2v3h-2l-1 5h-2v3h-2l-1 4-6 10-8 14-7 15-1-4 1-4 2-3 2-9h2l1-10 7-11 6-10 4-7 6-8-3 3-8 2-4 4-1 3-5 3-4 5-5 3 1-5h2l2-6 6-8 8-12 11-13 7-8 12-13 15-16 30-30 8-7 10-9 11-9 14-11 14-9 11-7 9-4 4-5 9-4 17-9 20-8 16-6 31-13 28-11 21-7z" fill="#4D3F7A"/>
<path transform="translate(550,293)" d="m0 0h3l1 5-1 2 7 2-2 5-11 13v3h-2l-2 4-9 11-4 4-4 6h-2l-3 6h-2l-2 5 1 4 1 3-5 13-10 16-17 28-11 22-15 40-5 16-1 12-3 7-5 19-4 15-6 23-1 8-3 1-1 5h-1l-1 15-3 9v8l-1 9-1 4v13l-1 8v4l-1 14-1 5 1 1v6l-4 2-5-2-2-3 1-3-2-1-2-4v-11l-1-6v-8l-1-10 1-19 3-23 4-21 3-16 9-34 3-9 2-8 8-19 14-38 8-19 5-12-4 6h-2l-3 9-11 30-4 12h-1v-6l-2 2-7 16-3 3v-3h-2v4h-2l-1 3-2-1-3 7h-2l-3 10-5 13-4 8-1 4h-2l-1 13-3 12-4 20-2 11-4 37 1 3-1 4v52l1 14 1 4-5 1-2-1-1 4v15l1 10 1 3-1 1v9l1 4 3 1 3 9v5 2l4 13-1 5 5 12-1 3-4-5-7-19-5-20-4-24-5-24-2-13-1-18v-23l2-34 5-41 5-28 3-16h2l2-14 6-27 2-6h2l2-9 4-13 7-15 4-10 3-10 2-4h2l3-10 1-4 3-3 7-16 10-18 6-9 2-5 6-7 8-8h3l1-5 6-4 6-1 4-3-2 4-7 9-2 5-3 4-6 11-3 4-2 10h-2l-1 9-3 5v3l10-19 9-16 3-5h2v-3h2l1-5h2v-3h2l2-5 7-10 4-7h3v-5l6-7h2l2-5 7-7 8-7 6-4 5 1h4v-2z" fill="#983557"/>
<path transform="translate(1317,129)" d="m0 0 9 1 9 4 9 6 11 14 8 17 5 16 3 20 1 12v30l-4 28-6 22-10 20-8 11-4 5-6 4-7 2h-7l-10-3-8-7-9-16-7-15-4-14-3-18-1-14v-46l2-17 4-17 6-15 11-17 8-9z" fill="#FDFCFC"/>
<path transform="translate(1576,462)" d="m0 0h21l1 4 1 82v167l1 32h-33l-9-2-4-8-6-20-17-37-12-30v-8l2-3v-3l-1-7-5-16-1-3h2l3 6v3l5 1 1-6-2-1 2-2 1-2-5-18-1-10-4-2v-2h-2v-3h-2v-2l-2-1 3-4v-9h4l3 6 4 4 2 7-2 5 2 4 4 2 1 6h2l2 3v3h2l1 4 2-1 2-3 10 26 4 12 4 6 5 3 2-7 1-28-1-147z" fill="#094D96"/>
<path transform="translate(1336,78)" d="m0 0 6 2 7 1-4 2 5 5h2l1-2 5 4v2l-2 2-1 8-3 2-5-1-9-1-10-2v2l9 1 12 6 4 5 3 7 4 10-1 10-1 4h-7l-4-3v-2l-3 1-10-7-13-4-6 1-8 5-8 10-10 17-6 18-3 16-1 11v46l2 22 4 18 6 15 10 19 7 8 8 3 4 1h7l9-3 5-4 8-11 12-23 6-22 3-19h1v11l-2 11-1 7 2 1-1 9-1 1-2 17-6 16-2 6v5l-6 8-5 4h-2v2h-2v2h-2v2l-4 1-7 1-1 4-1 2 8 4 9 1 7-5 2-4 11-6 7-8 4-7 4-8 1-8 2-6 3-8 5-11v-4h3l-2-14v-24l1-13 1-7 1-17v-6l1-2-2-1-2-12 1-5-1-13 1-4h-2l-1-2-1-9-3-2-1-6-1-5v-14l2-1 2 1v2l6 1 10 28 2 10 2 20 1 20v49l-2 21-5 16-10 22-7 16-10 15-7 9-12 12-11 7-13 4h-20l-10-4-10-7v-3l-8-6v-2l-4-2-5-4-4-8v-2l5-1 1 3 10 1 18 3-5-6-10-7-1-3-2-1-2-9v-7l-2-7-1-11-4-8-2-6-2-1-4-9-3-9-4-16-2-19-1-14-1-7v-32l4-1 1 3h3l1-5 1-9 2-6-1-4-2-6h3l3-2 1-7v-2l-3-2 1-2h-4l2-5 6-7h4l1 2 5-1 3-7 6-4 5-5h5l-7-2 3-3 9-3 1-4 2-5 2-1h9l1-4-4-1-6-2-11-1-1-2 3-3 12-4v-3l7-1 6 3 1-4z" fill="#094D96"/>
<path transform="translate(1636,79)" d="m0 0h7l4 4 1 301-2 6h-22l-8-1-4-3-2-20-1-20-1-78 1-161 1-26 1-1z" fill="#103F80"/>
<path transform="translate(453,552)" d="m0 0h1l1 9-1 3v15l-3 11v9 2l1 7h-2l1 7-1 19 1 24h-2v6l1 4 1 7 1 2v12l-2 2-2 7-2-1-1-3 1 5 3 1 2 12 4 10 5 9 1 3h2l3 5v4h-3l1 6 3 1h3l11-1 9-7 9-6 5 3v-6l3-2 6-2 5-3h10l21-10 15-12 6-4v-4l6-7 3-17-4-10-5-2-5-5-3-4 1-2 15 14 5 8 1 3v10l-4 8-4 6-8 7-12 10-15 10-10 6-10 8-1 2h-2l-2 5-4 9v7l6 10 5 5 3 2 2 4 3 2h-3v3l9 2 7 3 3 5 5 4 5 5 16 5 7 6 17 5 5 1v-2h-7l-5-3-1-2h-7l-2-1v-3l5-2 7-2h4l9-1h4l7-1 3 1 2-1 17 1 12-2 25-1 1-3 3-1-3-1-8 2-15 2h-9v-1l13-2 15-5h-5l1-2 8-4 9-2 4-2 24-1 10-6 6-3h6l6 10 3 9v26l-3 12-2 4h-2v4h-2v2h-2l-2 4-7 7-15 9-16 8-28 10-49 15-25 7-18 6-7 1h-21l-15-3-6-1-4 2-10-5-14-5-12-6v-2l-6-2-6-3-6-2-10-6-10-7-5-3-3-4v-2l-4-1v-2l-4-2-7-7v-2l-4-2-6-9 1-4 9 13 5 5 13 12v2l4 2 23 14 16 8 11 5v2l12 2 23 6 15 3h24l11-3 54-16 36-11 20-7 17-8 13-8 8-7h2l2-4 6-11 1-7v-30l-4-11-3-1-13 6-9 3-45 22-23 10-17 6-6 2-17 2-12 2h-20l-18-2-19-5-18-8-13-8-10-9-8-7-9-10-12-18-4-9-3-2-7-16-7-35h-2l-2-14-5-25v-7l2-1v3h2l2 6-2 6 5 2-2-6-2-21v-17l4-23 3-21 4-18v-2h2l1-13z" fill="#103F80"/>
<path transform="translate(1436,81)" d="m0 0 28 1v2l-2 2 3 8 8 5v4l2 2v3h2l-1 4-8 12-1 14-4 14v25l1 4 3-3h2l1 4v28h-2l-4 12h2l1 8-2 4 2 10 2 7-2 6-1 14-1 9 2 6 1 7 2 4v86h-28l-6-1 1-47 1-105-1-57v-79l1-2v-6l-2-2z" fill="#0F3F80"/>
<path transform="translate(1342,78)" d="m0 0 6 1 11 6 8 8 10 15 11 22 5 13v2l-5-1v-2h-3v17l2 6 1 2 2 2 1 11h2l1 18-1 5 2 11 1 3v10l-1 18-1 2-1 18v19l1 7v7h-3l1 4-5 11-3 8-3 12-3 9-4 5-3 6-8 7-6 4h-3l-2 5-4 4-8 1-8-2v-2l-5-2 2-5 3-3h9v-2h2v-2h2v-2l8-7 4-6v-6l7-16 3-21 2-5v-5l-1-1 1-15 1-3 1-20v-30l-3-27-4-15-6-15-6-11-7-9v-2h2l4 4 7 1 1-14-4-10-5-10-5-3-8-4-9-2-1-3 11 2 9 1 5 1 3-1v-6l1-2-2-1 4-1v-2l-4-2-1 1-5-1-4-5 3-1-5-1z" fill="#103F80"/>
<path transform="translate(1148,76)" d="m0 0h8l12 3 10 5 8 9 12 22 9 20 5 16 2 8v7l-5 6-19 10-6-1-7-9-11-23-5-6-9-6-10-5-6-1-4 2-12 18-4 5-5 4h-2l-2 4-4 9-1 5-2-3-2 2-4-4 1-8-1-3h2v-5h1v-6l-2-4 4-9h2v-3l3-2 1-3h2l1-5h3v-2h2v-5l1-1v-7l1-10v-2l1-1-2-2 3-4h5l2-3h3l1-2 4-2h9v-2l3-1z" fill="#094D96"/>
<path transform="translate(732,781)" d="m0 0 4 2 4 11v30l-2 9-6 10-5 5-8 7-22 12-21 8-25 8-40 12-28 8-9 3-5 1h-24l-20-4-21-6-9-2v-2l-9-3-11-5 3-1 15 6 18 6 9 1 7 2 18 1h27l8-2 9-1 15-4 7-2 16-4 5-3h2v-2l5-1 1-2 2 1 2-7h4l2-4 4-3 6-8 5 2v-4l1-2h2v-2h5v-2h2v-2l4-2 2-4-2-2 5-2 2-4 5-2v-3h2v-2l-5-1h-3l-7 3-9 3h-3v2l-5 1v2l-7 2v-2l-2-1 1-2-11 5v-3l-6 4-9 3v-2l-6 1 1 3-4 1v-2h-5l-2 2h-22l-6-1h-9l-19-4-10-2-6-3-7-3-7-4 3-1 19 6 8 2 20 2h10l18-2 16-4 16-5 21-9 27-13 32-16z" fill="#8E3960"/>
<path transform="translate(631,519)" d="m0 0h3l2 7 3 3v8h-2l3 3v2l3-1-2 5-2 1-7-1 1 7-4 2-2 6-8 10-5 6-7 5-5 5-5 3-5-1-6-1-5 11-1 4h-2l1 13-4 8-4 13v5l3 2 5-5 5-9 3-4h5l5 9 2 10 6 8 15-2 1-3 5 1 3 4v3h2v3h2l2 3-1 4-4 3-1 4 8 10 3 2 1 8-8 7-7-1-5-4v-2l-6-2 1 5 1 7-5-1-14-5 1-10-4-2-6-8-3-10-2-3-5-3-6-6-2-6v-5h-8l-6-7-1-17 3-17 3-10 5-12 3-5 2-5 7-8 7-9 11-9 4-2 7-10 10-7h2v-2l10-4z" fill="#5B4175"/>
<path transform="translate(1530,241)" d="m0 0h8l3 7-1 10 8 16 8 14 14 22 2 10 6 20 7 19 3 13 1 17-22 2h-11l-4-5-5-13-11-22-18-44-7-16-9-12 1-4 2-2 3 1h3v-9l1-2 1-7 3-3 1-5 10-6z" fill="#103F80"/>
<path transform="translate(1098,622)" d="m0 0h12l36 3 19 3 9 4 8 7 3 6 1 5v12l-3 17-4 9-5 5-11 3-36 1-17 2-9-1-3-3-1-8v-64z" fill="#FDFCFC"/>
<path transform="translate(543,323)" d="m0 0h2l-2 4-9 11-4 4-4 6h-2l-3 6h-2l-2 5 1 4 1 3-5 13-10 16-17 28-11 22-15 40-5 16-1 12-3 7-5 19-4 15-6 23-1 8-3 1-1 5h-1l-1 15-3 9v8l-1 9-1 4v13l-1 8v4l-1 14-1 5 1 1v6l-4 2-5-2-2-3 1-3-2-1-2-4v-11l-1-6v-8l-1-10 1-19 3-23 4-21 3-16 9-34 3-9 2-8 8-19 14-38 8-19 5-11h2l2-6 10-16 13-18 10-14 11-15 5-5 9-10 9-11z" fill="#762659"/>
<path transform="translate(1253,854)" d="m0 0h21l9 5 4 7-1 3-4-1-18-1-6 2-3 5-1 10 1 5 2 1h10l11-4h3v11l-5 6-9 3-16 3-1 2 1 10 5 5 3 1h17l9-4 5-7 4-10v-29h2v-6l7 6 8 6 3 1-1-8-10-9-5-5-1-5 4-2h11l8 2 5 6 2 10-1 6-4 2-4-2 4 10 1 7v32h8l9-4 4-4 2-8 1-25-1-10v-15l2-4 2-1h8l10 3 3 4 1 5v8l-4 11-4 6-4 22-1 9-4 6-4 3-7 2h-13l-9-3-8-6-9-11-1-4h-2l-3 9-9 13-11 7-13 2-11-1-7-3-5-4-4-7-2-8v-19l1-10v-20l6-12 5-4z" fill="#FDFBFB"/>
<path transform="translate(1006,348)" d="m0 0h1l1 520 1 35v79h-16l-46-1-26-1-131-1v-1l-24-1-1-3 9 1 59-2 41-1h18l36 2 13 1 4 1h13l6 1 13-3 1-4-2-3v-7l3-8h2l2-9 3-7h-3l1-4h2l2-14v-5l-2 1v-6l2-4h4v-9l4 1 1-10 1-1 1-23v-33l1-36 2-17 1-82v-148l-1-22v-63l1-29 1-54z" fill="#113F80"/>
<path transform="translate(1747,595)" d="m0 0h4l7 16 8 20 16 34 8 16 20 41 7 12 9 10 2 3v3l-26-2-42-1-3-21-5-12-10-21-1-9v-3l-1-6 4 1-1-2v-8l-1-2h2l-1-7v-11l6-1-2-6v-12l2-3h3v2l4 1-1-5-3-7-2-11-2-1v-3z" fill="#123F7F"/>
<path transform="translate(1318,460)" d="m0 0 16 1 11 2 5 3 6 12 7 25 2 7-1 7h-2l-4-5-2 3 2 16h2l3 17v11l4 12 6 12 1 10 1 5h2l-1 16 1 5-1 7-5 4-5-1-2-2v-3l-2-1-2-6-7-24-3-3-3-13 1-4-1-12-2-4-2-14 4-1 3 1v2h2l1-4v-6l-1-1v-8h-2l-1-7v-7l4-1 1-2h2l1-7-4-4-1 3-2-4-1-3-10-7-1 4v2h2v2l4 2 1 7-3 2-8 1-2-4h-2l-3-11-1-9 2-4-4 1-2 5-1 13-3 9-1 2 11 2 3 9v5l-2 3-7 2-3 7-2 1v7l-3 5-3 14-2 16-2 9-2 6h-2v2l-4 1-3-1v2h-6l-2-5 1-9 1 2v-4l2-9 3-10 2-13 1-4 5-16 3-6 1-5-1-4 3-6v-5h-3v3l-3-1h-3v-7l9-27 6-10z" fill="#0F3F80"/>
<path transform="translate(1099,509)" d="m0 0 36 3 33 4 3 3 4 15v26l-3 6-6 5-12 4-50 2-5-3-1-2-1-16v-36l1-10z" fill="#FDFCFC"/>
<path transform="translate(1473,134)" d="m0 0 46 3 10 3 5 5 4 8 3 12v22l-5 9-6 5-9 4-7 3-10-1-5-1h-7l-6 1-1 7-1 1-7-1-3-3-2-5v-71z" fill="#FDFCFC"/>
<path transform="translate(1577,856)" d="m0 0h15l10 7 8 9 4 8 3 10 1 12-3 12-7 8-11 12h-2l-2 4-6 3h-11l-8-7-4-5-11-8-3-5-3-12-3-19-3-12v-7l9 5h10l7-5h2v-5l5-4z" fill="#FDFBFB"/>
<path transform="translate(1651,598)" d="m0 0h3l5 22v2l5 1 3-1 5 9 3 6 1 7 2 5h3v2l4 2-1 9v84l-3 2h-36l1-4 1-1v-10l-1-17v-29l1-6v-4l-1-15 1-9v-19l1-4-1-4 1-6-1-9 2-2z" fill="#103F80"/>
<path transform="translate(1437,856)" d="m0 0h12l6 5 4 11 7 27 4 26 3 12-1 1h-11l-5-4-4-9-2-15-1-19-2-16h-3l-2 7-2 25-2 12-8 10-7 6-9 3h-18l-12-5-7-8-3-9 1-16 1-8 5-3 5-8 1-3 1-17 1-2 5-2h11l3 2-1 16-3 23-4 13-2 5v7l4 2h9l6-4 4-8 2-10 3-32 2-11 5-3z" fill="#FEFBFB"/>
<path transform="translate(1670,856)" d="m0 0h9l3 2 1 7-1 9-1 21v22l2 11 1 2 9 1 2-1 2-13 2-29 2-12 7-16 3-4h7l8 7 10 10 4 10 2 9 3 39v6l-6 2h-9l-3-3-2-6-1-10-2-37-2-8h-5l-1 41-3 11-4 5-10 6-9 2h-10l-8-2-7-6-7-14v-20l2-18 3-11 5-9z" fill="#FDFBFB"/>
<path transform="translate(1217,855)" d="m0 0h10l6 5 2 8-26-1v66l-2 2-8 1-5-3-1-2v-54l-3-6-5-5-8-3-4 2-2 10v62l-2 2-4 1h-10l-3-4-4-12-12-23-5-5-7-2-3-6-1-5-1-25h12l3 1 2 6 2 17 2 8 4-4h2l3-11 4-12 5-5h12l8 2 2-4z" fill="#FDFBFB"/>
<path transform="translate(421,433)" d="m0 0 1 4-4 12-5 11-3 13-1 5-1 8-2 6-2 10-1 11v13l2 7 2-1-2 8h-2l-1 13-3 12-4 20-2 11-4 37 1 3-1 4v52l1 14 1 4-5 1-2-1-1 4v15l1 10 1 3-1 1v9l1 4 3 1 3 9v5 2l4 13-1 5 5 12-1 3-4-5-7-19-5-20-4-24-5-24-2-13-1-18v-23l2-34 5-41 5-28 3-16h2l2-14 6-27 2-6h2l2-9 4-13 7-15 4-10 3-10z" fill="#73265A"/>
<path transform="translate(1152,813)" d="m0 0h675l-1 2h-45l-76 1h-636l-5-1v172h295l2-1h68l127 1h178l67 1h25l-1-79v-53l1-39h1v172l-3 1-84 1h-495l-165-1-16-1-1-1v-174z" fill="#CC8087"/>
<path transform="translate(656,189)" d="m0 0 3 3-1 4-2 2 6 1v2l5 2-1 5-5 2-2 5-5 5-13 11-14 12-6 6h-2v2l-8 7-9 8h-2l-1 3h-2v2l-8 7-22 22-3 4h-2l-2 4-9 11-5 2 6-8 7-9v-2l-6-2v-7l-5 2h-3v2l-6 1-4-1h-3l27-27 5-4 7-8 8-7 12-12 16-14 9-9h2l1-3h2l2-4h2l1-3 4-1 3-4 5-2 5-6 9-2z" fill="#623D70"/>
<path transform="translate(1447,463)" d="m0 0h13l-2 2v37l2 90 1 76 1 40v36l-1 4h-8l-7-1-3-18v-14l2-1 2 1v-27l-1-18v-18l1-24 1-33 1-19v-21l-1-28h-3v10l-1 5h-1l-1-10-1-1v-31l1-31 1-5z" fill="#094E97"/>
<path transform="translate(626,198)" d="m0 0 3 1-3 5h-2l-3 9-8 7-3 3h-2l-1 3-8 7-3 3h-2l-1 3-8 7-12 12-7 6-5 6-8 7-20 20-7 8-10 9-3 5h-2l-2 4-3 4-1 4h-3l-2 5-7 11-4 6h-2v3h-2l-1 5h-2v3h-2l-1 4-6 10-8 14-7 15-1-4 1-4 2-3 2-9h2l1-10 7-11 6-10 4-7 6-8-3 3-8 2-4 4-1 3-5 3-4 5-5 3 1-5h2l2-6 6-8 8-12 11-13 7-8 12-13 15-16 30-30 8-7 10-9 11-9 14-11 14-9 11-7z" fill="#4B2D68"/>
<path transform="translate(1270,620)" d="m0 0 5 3-1 8 3 1v-2l10-1-4 2-8 3 2 2v-2l5-1h3v2l-6 1 4 2 2-1 3 2-5 2 1 2-6 24h2v2h3l2 7-4 8 1 1 1 7v9l3 5v9l-4 29-2 2-4 1h-42l3-11 9-32h2l4-17 5-17 4-16 2-11 3-9 2-5z" fill="#0F3F80"/>
<path transform="translate(1797,460)" d="m0 0h16l-2 6-8 14-1-4-1-3-7 4-10 1-2-1v2h-2v2l-6 5-6 18-6 10-3 6h-2l-1 4-9 12h-2v2h-2l-1 4h-2l-2 4-10 9-15 10-6 3 4 1v2h-6-4l-1-5v-2l2-10 14-27 21-30 16-25 6-7 8-2z" fill="#103F80"/>
<path transform="translate(1646,464)" d="m0 0h34l2 2 1 100-2 7-5-2-1-8h-3-2l-2 7-3 3-7 1-4 9-3-1-1-19-1-31v-60l-2-6z" fill="#0F3F80"/>
<path transform="translate(1576,462)" d="m0 0h21l-1 32-1 23-2 22v18l1 7-1 3v12l-1 7-1 12-2 1-2 10-4 7-3 11-1 3h-2l-1 8-6 2-1-11 2-10 3-9 1-6h-2l1-4v-3-11l-1-9 1-9-1-7v-18l1-13v-19l-1-9 1-2-1-3 1-2-1-7v-14l-1-8-3-1 3-2z" fill="#0F3F80"/>
<path transform="translate(581,667)" d="m0 0 3 3 3 10-1 9-8 15-8 10-1 2v7l1 4 5-2 2-2 7-2 12-5 13-7 14 1-4 2-9 1-11 7-13 12h-2l-2 4-9 8-11 9-3 4h-2l-2 4-2 3-5 3-4 6-7 5-5 2h-6l-7-5-6-9-2-4v-7l4-9 3-5h2l2-4 15-11 10-6 14-10 13-12h2l2-5 4-6 1-3v-10z" fill="#3A4583"/>
<path transform="translate(550,293)" d="m0 0h3l1 5-1 2 7 2-2 5-11 13v3l-4 1-9 11-10 11-4 5-5 5-10 14-11 15-10 14-5 8-1-2-2-1v-2l-4-5-4-1 4-1v-6l-2-2-2 1-1 4-6 12-2-1 8-16 10-18 3-5h2v-3h2l1-5h2v-3h2l2-5 7-10 4-7h3v-5l6-7h2l2-5 7-7 8-7 6-4 5 1h4v-2z" fill="#8E3960"/>
<path transform="translate(1193,621)" d="m0 0 7 1 4 4 2 5-1 3h-2l2 9 2 11 3-1v17l-2 6-6 23 3 4v5l-4 4-2 7-4 7 3-2h4l-1 5-6 9-4 4-4-1 1-7h-2l-2 2-2 1h-12l-7-3-3-4h2v-10l-1-6 2-3 1-6 9-6h2l1-4-2-1 7-2 3-6 1-7v-29l-3-9-1-5 5-1 1-8 3-1 1-4z" fill="#0F3F80"/>
<path transform="translate(1330,532)" d="m0 0h2l9 26 14 65 1 8-2 2h-36l-11-2 1-9 8-41 6-25 4-17 3-6z" fill="#FDFCFC"/>
<path transform="translate(1762,99)" d="m0 0 9 1 3 1v2l6 1v2l5 2 1-3 5 7 2 1v-2h2v-2h2l11 23 4 12 3 16v10l-2 2-22 4-12-1-5-4-7-20-3-6 1-3 4 1 1 6h2l-1-6-2-9v-7l-2-5-1-10-1-4-2-2-4-2-1-4z" fill="#0F3F80"/>
<path transform="translate(1380,677)" d="m0 0h6l9 7 5 8 3 7 4 2h3l1-2 2 1v2h2l6 18 5 23v4l-36 1-9-1-6-26-4-28-3-10 4-1 6-3z" fill="#103F80"/>
<path transform="translate(587,626)" d="m0 0h5l5 9 2 10 6 8 15-2 1-3 5 1 3 4v3h2v3h2l2 3-1 4-4 3-1 4 8 10 3 2 1 8-8 7-7-1-5-4v-2l-6-2 1 5 1 7-5-1-14-5 1-10-4-2-6-8-3-10-2-3-5-3-6-6-2-6v-6l3 1 5-5 5-9z" fill="#5B4175"/>
<path transform="translate(1473,854)" d="m0 0 45 1 12 5 5 4v20l3 38 4 13-1 4-1 1h-11l-4-6-1-4-1-47-2-10-4-4-4-1h-17l1 20v44l-4 5-6 1-1-1-2-47-4-15-10-20z" fill="#FDFBFB"/>
<path transform="translate(1190,276)" d="m0 0 5 1 8 5v2h-8l-4-2-1-2-4 2-2 4 1 7-2 5-1 12-3 5 2 5 3 1 2-11h3v8l-2 8-5 14-5 6h-2l-2 5-7 6-3 3-5-1-7-3-7-1-9-3-8-2-9-1-3-7-1-4h-3l-1 4-4-2-1-3-3-1-1-5-2-1 2-5-1-3-2-10-1-4v-5h3l2 1 1-3 6 11 11 14 6 8 10 7 7-1 13-8 6-7 16-32 4-9 4-6z" fill="#094D96"/>
<path transform="translate(467,421)" d="m0 0 1 3-5 11-11 27-14 38-6 13-3 12-8 29-4 17-4 23-3 20-1 8-1 19-1 2-1 14h-1l-1-15-1-7 1-2h-2l-1-9 1-1-1-3-1 10-2 2-2-6v-2-9l2-3 3 1 1-9h-3l1-2 1-3 1-8-1-3 2-3 1-3-1-3 1-2h2l-2-6 3-4v-8h-2v-7l-1 1-3 9-2 8h-1l1-10 3-13 1-7h2l1-6 7-16 5-13h2l1-5 3-3 1 1 1-4h2v-2h4l5-12 4-7 2 1v3l9-26 8-20 4-5z" fill="#8F3A61"/>
<path transform="translate(1818,818)" d="m0 0 1 2h3l-1 15-2 4v7l2 3-1 3-3 4-1 2h-2v4l-2-1v2 3l-4 1-1 7h-2l-1 14-2 10-1 11-3 4-4-1-5-2v-2l-3-1-4-5-5-2-2 1-2-44 3-5 3 1 2 3v8l3 2v-2l3 1 2-5-1-2 3-3 3-6 4-6-1-9 4-3h2l1-3 6-3-1-4 9-1z" fill="#AA1C30"/>
<path transform="translate(1609,81)" d="m0 0h1l-1 198 1 67 2 33 1 7 3 3-1 2-8 1-8 2-7-4h-5l2-1-1-4-1-13-1-10 3-1 1-2 2-15 3-5h6l2-4 1-20v-23l-1-25v-59l1-53 2-15 2-53z" fill="#F0FDFD"/>
<path transform="translate(817,253)" d="m0 0 3 1-1 7-4 9-7 9h-2l-2 5-11 11-8 7-12 11-13 12-8 8-9 12-5 7v7l5 12 9 15 13 17 8 10h-3l-13-16-8-10-10-17-3-10-2-12 1-3h2v-2l4-4h2v-2h2l2-4 5-3 3-7 3-5 5-5 4-3 6-2 2-4 5-5 7-3 7-6 3-10-4-2-1-5-4-1-4 1-1-1-9 1-5 3h-2l-2 4-7 6-5 4-9 3-10 3h-7l-13 4-4 6-1 7-2 4h-2l-2 5-5 9-10 13-10 11-3 6-2 12 1 11 3 12 2 6-3-3-4-11-4-18v-9l7-14 11-12 9-15 4-7 7-9 7-6 19-8 24-13 13-8 9-4 22-9 8-2z" fill="#3A4482"/>
<path transform="translate(1611,80)" d="m0 0 4 1v10l-2 22v205l1 24v10l2 7v6l3 4-1 4h-4v5l5-1 5 3 7 2 6 1 2-5 5-3 1-1v-274l1-17h1l1 301-2 6h-22l-8-1-4-3-2-20-1-20-1-78 1-161 1-26z" fill="#094E97"/>
<path transform="translate(491,415)" d="m0 0 1 2-7 14-2 10-7 15h-2l1 6-5 11-7 16-3 17-12 41-1 10h-2l-1 13-1 4h-2l-1 11-5 38-2 22 1 22 6 29v10h2l4 14 4 21 5 11 2 5 3 2 7 14 11 15 12 13 11 9 9 6 12 6 14 6 16 4 18 2h20l18-3 11-1 18-6 21-9 29-14 27-13 3 1-15 8-13 6-16 8-28 13-18 7-19 5-11 2-12 1h-10l-20-2-22-6-16-7-14-8-13-10-9-9-5-4-4-7-4-5v-2l-3-1-5-7-1-5-8-16-4-10-7-31-6-18-5-29v-21l3-28 2-21 3-19 6-22 3-12 6-22 2-6 2-14 9-26 11-28 11-22z" fill="#603E71"/>
<path transform="translate(1065,507)" d="m0 0 4 3 2 12 1 3h-2l1 5-1 25-1 3 1-1 1-3h2v11l-2 16-2 2-1-1 1 7-2 2v10l3 1 1 5v8l1 2-1 1 2 2 3 12-2-1v-2h-2l2 9 1 14-1 30v8l1-1v-7l2-5h1l1 14 1 8v7l-3 1-2-1-1 5 2 4v13l3 1-1 4-2 1-3-2-1 4 2 5 4 3h12l2 2-27 1-1-5v-234z" fill="#0F3F80"/>
<path transform="translate(1527,665)" d="m0 0 2 1 2 6 3-4 2 6-3 4h5l6 15 6 12h2l1-3 4-1 3 2h6l7-1 10 7 7 7 2-1 1 3v9l-2 10v2h5l3 5-1 3h-31l-9-2-4-8-6-20-17-37-4-10z" fill="#113F80"/>
<path transform="translate(1474,480)" d="m0 0h5v2l3 1 2 21 1 7h2l2 8 9 17 1 4-2 2-4-9-2 2h-2v-4h-2l3 12 3 3 4 13 8 11-2 6-4 2 1 8 5 13 10 20-1 6-5 1-7-15-7-19-5-12-6-10-1-3h-2v15l1 8 1 24v57h-1l-1-53-2-32-1-24-3-17-2-30v-30z" fill="#094D96"/>
<path transform="translate(747,431)" d="m0 0 8 4 3 3v2l5 1 4 3v9l3 3-1 4-4 2-1 5-2 1h-7l-1-2-1 4-6 2-7 2-5 4-3 1-9-5v-2l-5 1v-2h-2l-2-5-3-15 3-8 5-5 9-3 5-2h13z" fill="#5B4175"/>
<path transform="translate(488,340)" d="m0 0v3l-8 10-2 5-3 4-6 11-3 4-2 10h-2l-1 9-3 5v8l-7 14-3 9-3 7h-2l-1 5-6 16h-2l-1 7-7 21-4 4v-10l2-15 2-10 2-16 5-17 5-12 4-8 1-7 2-4v-5l4-5 3-9 3-6 6-7 8-8h3l1-5 6-4 6-1z" fill="#762659"/>
<path transform="translate(1182,105)" d="m0 0h2v2l6 2 4-2 11 23 6 17 3 12v7l-5 6-19 10-6-1-7-9-10-21v-2h2l1 2 4-1 4-3 2-1 2-3 3 1 4-2 1-3-7-10v-3h2l2-4 2-2-3-1-1-9-2-1v-2l-2-1z" fill="#103F80"/>
<path transform="translate(667,210)" d="m0 0 1 3-4 2-2 4-5 6-8 7-1 2h-2l-2 6-3 3h-2l-1 4-11 8-5 5-7 6h-2v2l-8 7-5 4-1 2h-2v2h-3v3l-8 7-2 3h-2l-2 4-9 9-7 8-12 12-11 14-10 13-13 19-4 4 3-9 1-6-2-2 1-5 2-3h2l2-4 7-9 7-8 8-10 4-4h2l2-4 9-11 5-5 4-2 2-4 22-22h2v-2l16-14h2l2-4h2v-2l8-7 11-10 11-9 15-11z" fill="#4B2C67"/>
<path transform="translate(1217,855)" d="m0 0h10l6 5 2 8-26-1v66l-2 2-8 1-5-3-1-2v-54l-3-6-5-5-8-3-4 1v-3l-3-2 8 1 2-4z" fill="#FDFBFB"/>
<path transform="translate(1210,314)" d="m0 0 1 4-8 25-8 16-11 14-8 8-13 9-10 4-9 2h-7l-12-4-5-3 3-1-15-9-7-6-1-4-3-3v-5l11 6 7 3 6 1h9l5 1h6l4 1 7 1 2 1 10-1 5-3h7v-2l6-4 6-5h2l1-6 4-6 2-7 2-1 2-4 1-4 1-6 2-1 1-9z" fill="#094D96"/>
<path transform="translate(1761,855)" d="m0 0h10l2 3 1 58 1 7 4 2h13l6-3 4 1v14l-3 4-11 2h-12l-7-3-6-5-3-8-1-65z" fill="#FEFCFC"/>
<path transform="translate(1707,99)" d="m0 0 7 1-4 3-1 5h-2v5l5-1 6-4 4 2-2 7-2 6h-2v7l-3 2-4 11-3 10v14l4 12v6h-5l-4-2v-2l-5-2-5-6-5-4-1-6v-6h2l-1-5 2-7h-2v-4h2v-9l3-5v-1l2-1-1-5 3-6h2v-2l4-4-1-3 3-1v-3z" fill="#0F3F80"/>
<path transform="translate(1062,463)" d="m0 0h87l27 1 6 2-4 5h-10v-2h-29l-8-1-7 2h-21l-8 1v3l-3 1-3 3-4 12h-3l2 2 2 1 1 10-3 15-4 4v8l-2 11-5-1-2 1v-9h2l1-2h4v-4h-4l-1-6-2-4-1-5 1-4 5-5 1-3-3-1v-6l-5-3-1-13 2-4-6-1-2-6z" fill="#0F3F81"/>
<path transform="translate(1350,857)" d="m0 0h8l10 3 3 4 1 5v8l-4 11-4 6-4 22-1 9-4 6-4 3-7 2h-13l-9-3-3-3 4-1 11-2 8-4 3-6 1-5 1-25-1-10v-15l2-4z" fill="#FDFBFB"/>
<path transform="translate(1440,508)" d="m0 0h1l1 23 2 4 1-8h3l1 9 1 20v26l-1 18-1 37-1 18v15l1 28v12l-1 5h-3v14l2 18h7v1h-8l-3-17-1-18-1-37z" fill="#FEECED"/>
<path transform="translate(1210,868)" d="m0 0h20l4 2 3 4v44l2 8v3l-6-2-1-3-4-2-1-2-7-1v-2h-3v2h-2v3h-3l-1 9h-1l-1-16v-43z" fill="#AB1F32"/>
<path transform="translate(470,385)" d="m0 0 1 3 2 1-1 6v1h2l3 6 1 3-1 5-8 14h-3l-3 5h-2l-3 9-11 30-4 12h-1v-6l-2 2-7 16-3 3v-3h-2v4h-2l-1 3-2-4 1-3h2l2-5 2-13 4-14h2l2-9 5-12h2l3-9 4-11 5-10 1-5h3l2-6z" fill="#983556"/>
<path transform="translate(1571,867)" d="m0 0 16 4 7 8 3 7 1 6v17l-5 10-8 7-7-1-4-5-4-9-1-10v-28z" fill="#BF2C35"/>
<path transform="translate(1089,855)" d="m0 0 10 2 1 1 1 10v50l-2 16-2 4-6 1-5-2-2-3v-72l2-6z" fill="#FDFBFB"/>
<path transform="translate(1729,871)" d="m0 0 6 1 4 8 3 12 3 39v6l-6 2h-9l-3-3-2-6-1-10-1-24v-21z" fill="#FDFBFB"/>
<path transform="translate(732,779)" d="m0 0 5 1 4 6 3 9v26l-3 12-2 4h-2v4h-2v2h-2l-2 4-7 7-15 9-16 8-28 10-49 15-25 7-18 6-7 1h-21l-15-3-6-1-4 2-10-5-14-5-12-6v-2l-6-2-6-3-6-2-10-6-10-7-5-3-3-4v-2l-4-1v-2l-4-2-7-7v-2l-4-2-6-9 1-4 9 13 5 5 13 12v2l4 2 23 14 16 8 11 5v2l12 2 23 6 15 3h24l11-3 54-16 36-11 20-7 17-8 13-8 8-7h2l2-4 6-11 1-7v-30l-4-11-3-1-13 6-2-1z" fill="#473874"/>
<path transform="translate(654,244)" d="m0 0 2 1-7 6-8 7-5 5h-2l-2 4-6 7-4 3h-2v2l-16 12-7 7-2-1 10-11-2 1-7 7-8 7-5 6-10 10-5 7-3 1-1 5-1 2 2 1-9 11h-2l-1 3h-2l-2 4-3 5h-2l-1 4-1 2h-2l-2 4-5 8-3 7-3 1-2 5-10 14-7 12-5 9-7 6-3-3 6-12 13-21 6-11 7-9 4-4h2l2-4 12-14 11-15 8-12 12-14 19-19 11-9 13-11 18-13 13-10z" fill="#0F3F80"/>
<path transform="translate(1629,857)" d="m0 0h10l6 4 2 5 1 9v22l-4 5v19l-2 11-4 6-4 2h-9l-3-3 9-19 3-8 3-12-9-34v-6z" fill="#FEFBFB"/>
<path transform="translate(1515,871)" d="m0 0 4 2 2 3 1 15v14l1 18 1 7-2 6-4 1-4-2h-2l-1-5h-2l-1-11h-2l-2-2v1h-5v-26l2-5 5 1 2-8 3-2 1-4h2z" fill="#AA1C30"/>
<path transform="translate(733,503)" d="m0 0 2 1-11 8-15 10-18 11-34 25-13 10-9 7-11 10-7 8-5 4-2 4v7l4 6 6 5v2l4 2 7 8 9 14 7 16 5 10 3 8v11l-7 9-10 6-12 5-3-1 15-7h2l2-4h2l2-4 6-7v-8l-8-17-4-9-7-13-3-2v-2l-6-2-9-2-5-3-4-5-4-7-2-8 2-7 7-8 6-4 6-8 8-7 10-8 12-9 9-6h2v-2l10-6 16-12 24-15 15-10z" fill="#3A4583"/>
<path transform="translate(376,588)" d="m0 0 1 4-4 34-2 34v23l1 18 4 24 6 29 2 13 7 24 5 11 1 4 3 1 10 18v2h2l1 5-4-1-7-11-1-3-2-1-5-5-6-12-1-10h-2l-1-6-3-7-3-12-3-15-4-25-3-16-2-17v-55l1-3 2-25 2-7 2-2z" fill="#133F80"/>
<path transform="translate(1435,82)" d="m0 0 4 4v6l-1 2v79l1 74-1 88-1 34-1 13 34 1v-49h1v50l-1 1h-27l27 2-2 4h-15l-14-2-4-1z" fill="#094E97"/>
<path transform="translate(457,364)" d="m0 0v3l-2 2-3 7-9 15-14 28h-2l-1 6-3 8h-2l-6 18-5 13-4 8-7 22h-2l-2 10-6 29-2 8h-2l-1 11-5 26-1 7h-1v-8l2-16v-3h-1v-13l2-6 2-10 5-9 1-5v-9l5-10 2-8 2-2h3v-10l4-16h2v-6l5-2 1-8 2-7 2-2 1-5 3-8 4-5 6-16 1-2 4-2 3-8v-4h2l2-6 7-4v-3l5-5z" fill="#1F3F7E"/>
<path transform="translate(731,839)" d="m0 0 3 1-4 6-13 10-18 10-20 8-28 9-40 12-28 8-9 3-5 1h-24l-20-4-21-6-9-2v-2l-9-3-11-5 3-1 15 6 18 6 9 1 7 2 18 1h27l8-2 9-1 15-4 7-2 16-4 13-5 10-2 11-4 10-5 6-1 4-4 11-4 8-3h3v-2l6-4 6-1 3-1 1-3 5-3h2l2-4z" fill="#752659"/>
<path transform="translate(587,626)" d="m0 0h5l5 9 2 10 6 8 5-1 4 2 1 8 7 4v2l2 1 1 2-4 2v-2h-9l-5 6h-5l-6-7-3-6-11-8-5-8v-6l4-7z" fill="#633D70"/>
<path transform="translate(1552,874)" d="m0 0h6l3 2h5l1 3v9l-3 8-5 6 1 10 1 3h7l4 5 2 9 5 2 4 8-5 1-7-3-7-8-11-8-3-5-3-12-2-14v-10z" fill="#FEFCFC"/>
<path transform="translate(1648,233)" d="m0 0h1l1 54 5-3 7 1 6 7h3l2 3 2 12v6l-3-1-4 3-4 10-3 2-6-1-3-12-2-2-1 10-1 25h-1v-84z" fill="#EFFEFE"/>
<path transform="translate(1789,242)" d="m0 0 5 1 8 8 3 5 3 14 4 3 5 2v2h2v2h2l1 7 3 8-2 10-1 2v4h-2v-2l-5 2-5-1-3-7h3v-9l2-4-2-5-5-4-7-11v-2l-3-1-6-8-6-9 1-5z" fill="#103F80"/>
<path transform="translate(697,798)" d="m0 0 2 1-9 6h-2v2l-6 4h-3v2l-13 5-5 3h-3v2h-3v2h-4v2l-15 6-9 3-8 4-13 3-3 1-29 1-19-4-10-2-6-3-7-3-7-4 3-1 19 6 8 2 20 2h10l18-2 16-4 16-5 21-9 27-13z" fill="#762659"/>
<path transform="translate(1440,481)" d="m0 0h1v195l1 37 1 18 2 17-1 1h-6l-5-5-1-21 3-6 2-12 2-6-1-13v-166l1-17v-15z" fill="#EFFEFE"/>
<path transform="translate(1190,538)" d="m0 0 3 1 3 15 3 9 1 6 2 2 3 1-9 13-1 3h-2l-1 2-7-5-1-5h-15v-2l-8-1-6 1-4-2 16-3h4l2-6 5-1v-2l-2-1 5-4h4l3-5 1-15z" fill="#103F80"/>
<path transform="translate(458,758)" d="m0 0 2 1 7 14 11 15 12 13 11 9 9 6 12 6 14 6 16 4 18 2h20l18-3 11-1 18-6 21-9 29-14 27-13 3 1-15 8-13 6-16 8-28 13-18 7-19 5-11 2-12 1h-10l-20-2-22-6-16-7-14-8-13-10-9-9-5-4-4-7-4-8-7-11z" fill="#3E417E"/>
<path transform="translate(1238,913)" d="m0 0 3 1v2l5-3h2l4 10 4 3 3 1v2l23-1 9-1 1 4-5 5-8 5-13 2-11-1-7-3-5-4-4-7-1-2z" fill="#FEFBFB"/>
<path transform="translate(1531,250)" d="m0 0 7 1 3 9 7 14 8 14 14 22 2 10 1 7-2-3-5-16-3-4h-3l-4-1-3-2v-2l-3-1-2-2-2-1v-2h-2l-1-6h-2l-1-4-1-2-2 1v-2l-2-1-1-4h-2l-4-7-2-3v-7h2l1-5z" fill="#094D96"/>
<path transform="translate(1296,871)" d="m0 0 7 6 5 5-8-4v8l6 1 5 4 3 10-3 8-1 2h-2v8l-3-3-1-4h-2l-3 9-6 9-2-2-13 1h-19v-1l17-1 9-4 5-7 4-10v-29h2z" fill="#FEECED"/>
<path transform="translate(1577,856)" d="m0 0h15v1l-16 2-4 4 1 4-2 1-1 5v28l2 13 5 9 6 2 5-2 5-4-1 4-3 8-1 2h-2l-1 5 8-1-3 3-3 1h-11l-3-3 8 1v-3l-3-5-5-2-2-9-3-4h-7l-3-8v-6l6-7 2-7v-9l-1-2-6-1-1-1h-6l-6 5-1 5h-1l-3-12v-7l9 5h10l7-5h2v-5l5-4z" fill="#FEECED"/>
<path transform="translate(655,679)" d="m0 0h1l1 5v9l-4 7-22 10-15 5-9 6-5 5-6 5-6 7-9 5-4 4h-2l-2 4-9 8-2 3h-2l-2 4-8 7-7 6-6 3h-3l3-3 2-4 5-3 4-6 2-2h3l2-4 2-3h2l2-4 10-9 9-7 4-5 8-7 11-9 7-4 13-2 17-7 10-7 4-6z" fill="#0F3F80"/>
<path transform="translate(1250,143)" d="m0 0 3 3 1 11-5 16 1 7-3 7-4 10h-2l-1 9 1 8h-2l2 9 2 7-2 5 1 8-1 9 1 21 1 13 2 13 2 6v9l-2-4-5-24-3-21v-61l4-27 6-25z" fill="#094E97"/>
<path transform="translate(1184,467)" d="m0 0 5 3 5 6 9 16 6 18 2 10v19h-3l-2-7-3-10-2-9v-4h-2l-4-6v-2l-3-1-8-8 1-14-1-7z" fill="#123F80"/>
<path transform="translate(712,519)" d="m0 0 2 1-15 10-16 11-11 8-14 12-16 12-10 8-6 7-6 12-1 9 3 5 10 14 11 19 11 26-1 3-6-14-7-15-7-12-8-10-5-4-5-5-5-6-1-2v-7l3-5 6-5 7-8 13-12 11-8 16-12 15-11 13-9z" fill="#103F80"/>
<path transform="translate(433,586)" d="m0 0h2l-1 13-3 31-1 16v16l5 29 4 18v5l-3-2v-5l-1-3-3-1 1-8h-2l-5-15-1-7-1-1v-8l-1-3v-4l1-9v-15l1-3 1-14 1-7 2-4 1-15 2-1z" fill="#8F3960"/>
<path transform="translate(1084,849)" d="m0 0 4 1 1 4h-2l-2 8-1 74-5-2-2-6v-21l-1-5v-31l1-12 3-7z" fill="#A81E33"/>
<path transform="translate(426,452)" d="m0 0h1v7l-3 15-1 8v9l4-8 2-3v7l-3 5h-2v5l-4 8h-2l-3 10-5 13-2 4-4 2-2-8v-13l2-17 2-9 4 1 2-1v11l4-1 3-10 2-6 2-15z" fill="#8F3A61"/>
<path transform="translate(1647,875)" d="m0 0h1v22l-4 5v19l-2 11-4 6-4 2h-9l-3-3 9-19 3-8 3-12-2-11 2 2 3 8 5-1 1-2z" fill="#FDECED"/>
<path transform="translate(1496,867)" d="m0 0h17l7 3 3 5 1 8v45h-1l-1-5-1-22v-11l-1-14-1-3-4-1-1 2h-2v5l-4 1-1 8-2 1-4-2-1 5-1 26-1 12h-1l-1-42-1-20z" fill="#C13C44"/>
<path transform="translate(515,378)" d="m0 0h3l-2 5-4 11-13 21-13 25-14 34-5 13-5 12h-1v-7l5-12 8-18v-6h2l2-6 5-13 1-6 7-14 3-7 13-22 6-9z" fill="#544177"/>
<path transform="translate(656,189)" d="m0 0 3 3-1 4-2 2 6 1v2l5 2-1 5-5 2-2 5-5 5-7 5v-6l3-4-1-3 2-2v-2l-8 2-3-3-9-2 2-4 5-2 5-6 9-2z" fill="#5B4175"/>
<path transform="translate(1069,162)" d="m0 0h1v7l-1 4 4-1v11l-1 3 1 5-2 12-3 12h-1l-2-6 2 32v6 3 6l-1 2v5l1 3h-2l1 7v18h-1l-3-26v-51l3-30z" fill="#094D96"/>
<path transform="translate(1301,855)" d="m0 0h11l8 2 5 6 2 10-1 6-4 2-4-2 2 8-4-1-6-1-1-2 5 1-1-8-10-9-5-5-1-5z" fill="#FEFAFB"/>
<path transform="translate(481,460)" d="m0 0h2l-1 7-2 8-1 1-1 9-3 9-3 10h-2l-1 7-4 10-4 15-3 4-1-18 3-11 8-24 7-18 4-2z" fill="#0F3F80"/>
<path transform="translate(1755,860)" d="m0 0h3l1 2 1 16 1 55-2-2-1-3-2-1v-3h-2v-6l-1-3-1-6-1-12-1-2 1-13-1-5 3-11z" fill="#AE2639"/>
<path transform="translate(1278,886)" d="m0 0h3v11l-5 6-9 3-16 3-2 7-1-3-5 3h-2v-2h-2l-1 6h-1v-19h2v3l9-3 6 2 9-5 2-5-8-1v-1l10-1z" fill="#FEECED"/>
<path transform="translate(680,406)" d="m0 0 3 3 9 13 7 11 2 6-1 8-7 9-15 13-13 11-6 5-2-1 14-13 6-4 6-8 1-6 3-9 1-15-2-9-6-12z" fill="#103F80"/>
<path transform="translate(1061,462)" d="m0 0h28v1h-27l2 7 6 2-1 5v12l5 2 1 1v6l4-1-2 5-4 5h-2l-1 6-1-3-4-2v19h-3z" fill="#094C94"/>
<path transform="translate(1330,532)" d="m0 0h2l9 26 1 8-1-2h-3l-2 5-3 5-3-1-2-5-2-8-2-1-3 11h-1l1-10 5-21 3-6z" fill="#EFFEFE"/>
<path transform="translate(1121,895)" d="m0 0h2l4 7 7 23-1 7-5 4h-9l-2-1v-9z" fill="#FDFAFA"/>
<path transform="translate(609,208)" d="m0 0 2 1-15 12-9 7-10 9-11 9-10 9-5 3-9 10-22 22-4 3-1 3-8 7-11 12h-2l-2 4-7 7v-3l12-13 9-10 16-17 30-30 8-7 10-9 11-9 14-11z" fill="#5A4174"/>
<path transform="translate(450,378)" d="m0 0 1 2-5 10v5l-2 4-3 9-5 10-6 18-1 5-2-3-3 10-5 1-1 6-2 2-1-3 5-14 7-21 3-3 7-16 10-18z" fill="#8E3960"/>
<path transform="translate(1711,856)" d="m0 0h7l8 7 5 5 3 2-1 2-5 1-4 2-1 8h-1l-2-8h-5v7h-1l-2-6-4-2h-4l-3 14h-1v-8l5-14 5-9z" fill="#FEECED"/>
<path transform="translate(1689,290)" d="m0 0h5l8 6v2h2l1 11 1 4-6 4-2 5-6 1-2-5-2-10v-3l-1-8 3-1z" fill="#0F3F80"/>
<path transform="translate(439,570)" d="m0 0 1 4-1 10h-2v9l-2 12-1 15-2 11v28l3 23 3 14 2 4v6h2l4 14 4 21 5 11 9 19 7 10-1 2-2-4-3-1-5-7-1-5-8-16-4-10-7-31-6-18-5-29v-21l3-28 2-21 3-19z" fill="#603D71"/>
<path transform="translate(1798,922)" d="m0 0 4 1v14l-3 4-11 2h-12l-4-2 6-1v-7l5-6-3-1 12-1z" fill="#FEECED"/>
<path transform="translate(644,495)" d="m0 0 2 1-11 9h-2v2l-10 8-16 13-8 6-6 5h-2v2l-5 4-3 4h-2l-2 4-8 11-4 5-8 17-2 9-1 9v9l-1 2v19l-2-3-1-4v-26l4-17 10-19 10-13 4-5 8-7 8-8 13-10 19-14 9-8z" fill="#3A4583"/>
<path transform="translate(1524,83)" d="m0 0 12 1 4 3-1-3h2l5 10 6 5v3l2 1-2 2-2 1v3l-5 1-8-4-4-4-3-9v-2l-2-2 1-3h-6l-1-2z" fill="#103F80"/>
<path transform="translate(1190,872)" d="m0 0h2l2 5v43l-1 10-4-3-1-9-1-3v-10l-1-8-1-6 1-9 2-8h2z" fill="#AE293C"/>
<path transform="translate(1434,214)" d="m0 0h1v127l-1 44h-1l-1-83-1-21v-26l1-13 1-3v-15z" fill="#EFFFFF"/>
<path transform="translate(1476,252)" d="m0 0 6 3 10 10 6 7-1 2-2-1-4 2-2 4-4 1-5-4-4-6h-1l-1 7h-1v-11l2-13z" fill="#EFFEFE"/>
<path transform="translate(714,788)" d="m0 0 3 1-15 8-13 6-16 8-28 13-18 7-19 5-11 2-12 1h-10l-20-2-18-5v-1l9 1 16 3 11 1h12l23-3 24-7 24-10 33-16z" fill="#4D2E68"/>
<path transform="translate(831,146)" d="m0 0h4v3l-4 1-10 2-3 4-8 2-6-1-1 7-4 4h-3v5h-9v-3-3h-4-3l-5-2 2-6 2 3 5-1 2-3 11-2 4 2 4-2 1-3 4 1 5-2h4v-3h4v-2z" fill="#5A4175"/>
<path transform="translate(608,521)" d="m0 0 2 1-12 10-8 7-8 8h-2l-2 4-9 11-9 16-4 9-3 14v26l4 13v2h-2l-4-10-1-7-1-5-1-4 1-15 1-10 2-3 1-6 3-4 6-9 7-12 5-7h2v-2l8-7 4-4h2l2-4 6-5h2v-2z" fill="#0F3F80"/>
<path transform="translate(1689,991)" d="m0 0h52l9 1v1h-18l-31-1v2h-138v-2z" fill="#F5FEFE"/>
<path transform="translate(1420,223)" d="m0 0 2 1 2 6 1 9 1 25-1 11-2 4-3-1-2-6-1-12 1-30z" fill="#EFFFFF"/>
<path transform="translate(440,597)" d="m0 0h1v7l-2 9v3l1 10-1 12v12l2 20 3 7v5l-2-4-5-4 1-8-1-4h-2l-2-2-1-7 1-18 4-36 2 1z" fill="#094C95"/>
<path transform="translate(1344,864)" d="m0 0 3 4v15l1 9-2 14-2 5h-3v-3l-4-1v-2h2v-3h-2l-1-7v-7l-2-4 6-3 2-5z" fill="#AA2135"/>
<path transform="translate(413,832)" d="m0 0 4 4 6 9 5 5 13 12v2l4 2 23 14 16 8 11 5v2l6 1 18 6v2l5 1-3 3-10-4-24-10-3-2v-2l-6-2-6-3-6-2-10-6-10-7-5-3-3-4v-2l-4-1v-2l-4-2-7-7v-2l-4-2-6-9z" fill="#323D7A"/>
<path transform="translate(732,779)" d="m0 0 5 1 4 6 3 9v26l-3 12-2 4h-2v4h-2v2h-2l-2 4-7 7-13 8-1-3 10-6 8-7h2l2-4 6-11 1-7v-30l-4-11-3-1-13 6-2-1z" fill="#543E75"/>
<path transform="translate(585,590)" d="m0 0 6 1 2 2v5l-3 6v16l-10 5v-7l1-3-2-9 2-9 3-6z" fill="#4B2D68"/>
<path transform="translate(821,151)" d="m0 0 2 1v2l3 1-6 3-2 3h-3l1 5 11-4h3l-8 6-12 4-14 1v-5l3-1 2-3h2l1-7 9-1 5-1z" fill="#4D3D78"/>
<path transform="translate(1587,372)" d="m0 0h1l1 17-22 2h-11l-4-5-3-11h2v-2l6 2-2 1v2h2l-1 7 10 1 6-1 3 1-1-5 4-1 7 1 1-1z" fill="#094D96"/>
<path transform="translate(833,142)" d="m0 0h6v8l-6 9-8 5-5 2h-4l-1-5h3l2-4 5-2-3-3v-1l9-2 2-1 2 1v-3l-9 2h-7l-1-2z" fill="#4B3F7B"/>
<path transform="translate(429,446)" d="m0 0 2 3v3h2l2 4-1 8-8 24-4 4v-10l2-15 4-19z" fill="#4B2D68"/>
<path transform="translate(443,561)" d="m0 0h1v9l-1 4h-2l-1 11-5 38-2 22 1 22 6 29-1 4-3-9-3-16-2-16v-28l2-11 1-15 3-21h2v-18l2-1 2 1z" fill="#41427E"/>
<path transform="translate(1638,901)" d="m0 0 3 1 1 2v11h2l-1 14-4 8-1 1h-7v-4l4-4 1-7-1-5v-7z" fill="#FEFBFC"/>
<path transform="translate(467,421)" d="m0 0 1 3-5 11-11 27-14 38-7 16-2 1 3-9 17-49 8-21 4-9 3-3z" fill="#CC8087"/>
<path transform="translate(381,749)" d="m0 0 3 4 1 3 3 1 3 9v5 2l4 13-1 5 5 12-1 3-4-5-7-19-5-20z" fill="#7F3B66"/>
<path transform="translate(1797,460)" d="m0 0h16l-2 6-2 4-6 2v-2h-2v-2l-5 1h-13l-2-5 1-2z" fill="#0A4D96"/>
<path transform="translate(491,415)" d="m0 0 1 2-7 14-2 10-7 15h-2l1 6-5 11-3 7-5 1 3-10 11-28 11-22z" fill="#623D70"/>
<path transform="translate(390,515)" d="m0 0 1 2-5 24-7 37-1 7h-1v-8l2-16v-3h-1v-13l2-6 2-10 7-13z" fill="#144081"/>
<path transform="translate(1317,129)" d="m0 0 9 1 9 4-2 1h-5l-3 5-2 3-9 1-5-4h-5l2-4 5-4z" fill="#EFFEFE"/>
<path transform="translate(426,452)" d="m0 0h1v7l-3 15-1 8v9l4-8 2-3v7l-3 5h-2v5l-4 8h-2l-3 10-5 13-3 4v-4l3-16 2-4h2l2-5 2-7 3-15 2-15z" fill="#7A295A"/>
<path transform="translate(1217,855)" d="m0 0h10l6 5 2 8-26-1v-1l7-2 10 1 4-2-2-3-4 1-2-1v-3l-6 1h-34l1 4 5 5-4-2-9-2-2 1v-3l-3-2 8 1 2-4z" fill="#FEECED"/>
<path transform="translate(1478,873)" d="m0 0 2 1 2 12 1 1 1 10v27l-3-1-2-8v-12l-2-1 1-4-1-7 1-7-2-5 1-4z" fill="#AA1C30"/>
<path transform="translate(501,896)" d="m0 0 10 2 19 5 15 3h24l11-3 9-2-2 2-11 4h-3v2l-7 1h-21l-15-3-11-3v-2l-10-2-8-3z" fill="#4B3A74"/>
<path transform="translate(587,626)" d="m0 0h5l5 9v2h-4l-1 5-1 2-4 1-3-2v-2l-4 1-2 2 1-5 5-9z" fill="#5C4174"/>
<path transform="translate(687,415)" d="m0 0 5 5 6 8 7 14-1 5-6 8-7 7-11 7-13 11-2-1 10-9 11-9 9-8 4-6 1-8-4-10-9-12z" fill="#3A4583"/>
<path transform="translate(388,792)" d="m0 0h3l6 12v2l3 1 10 18v2h2l1 5-4-1-7-11-1-3-2-1-5-5-6-12z" fill="#194080"/>
<path transform="translate(1217,853)" d="m0 0h10l7 6v2l4 2-1 6-4 1-3-1-20-1-1 4v-5h22l4 1-4-9-4-3-47 1-2 3-20-2v-1l19-1 8-2h21z" fill="#CC8087"/>
<path transform="translate(1481,567)" d="m0 0h2l7 11 1 6-5 1-1 8h-2l1 8-1 6h-1l-2-25v-13z" fill="#F0FCFC"/>
<path transform="translate(401,480)" d="m0 0h2l-3 11-1 3h-2l-2 10-6 29-2 8-1-4 4-21-2-1v-9l5-10 2-8 2-2h3z" fill="#263E7C"/>
<path transform="translate(571,313)" d="m0 0v3l-7 8-12 18-13 16-8 10h-2l-1 3-5 4-9 14-1-2 8-13 9-11 11-11 10-13 12-17z" fill="#3A4583"/>
<path transform="translate(454,502)" d="m0 0h1v11l-3 7-5 19-4 15-5 19-1-4 2-12 1-5h2l1-13 5-19z" fill="#8F3A61"/>
<path transform="translate(609,208)" d="m0 0 2 1-15 12-9 7-10 9-11 9-5 5-2-1 9-11 10-9 17-13z" fill="#5B4074"/>
<path transform="translate(1e3 242)" d="m0 0h2v88h-1l-1-16-1-18v-24l1-14z" fill="#103F80"/>
<path transform="translate(1118,859)" d="m0 0h1l1 8v22l-4-4-3-4-1-8 1-5-2-1 3-7 3 1z" fill="#AB2437"/>
<path transform="translate(439,570)" d="m0 0 1 4-1 10h-2v9l-2 12-1 15-2 11-1 36h-1l-1-5v-21l3-28 2-21 3-19z" fill="#623D70"/>
<path transform="translate(1812,149)" d="m0 0h1l2 11v10l-2 2-11 2-4-1 7-3-1-4v-4l3-5h3z" fill="#094D96"/>
<path transform="translate(1099,509)" d="m0 0 36 3 25 3v1h-27l-18-1-6-2h-10l-1 2v-5z" fill="#F0FCFC"/>
<path transform="translate(1580,854)" d="m0 0h9l7 3 1 2-5-2h-15l-7 4-1 5-9 6h-10l-8-5-1 6h-1l-2-6h-2v5h-1l-1-8-4-4 15 6 4 3h9l6-4h2l1-5 9-5z" fill="#CC8087"/>
<path transform="translate(1109,741)" d="m0 0 34 1 3-1 5 2-1 2-29 1h-28l4-2h8z" fill="#0F3F80"/>
<path transform="translate(457,364)" d="m0 0v3l-2 2-3 7-9 15-8 16-1-4 3-5-1-4 2-5v-4h2l2-6 7-4v-3l5-5z" fill="#1F407F"/>
<path transform="translate(495,333)" d="m0 0 1 3-8 11-5 7-6 11-5 8-6 10-2-2 3-7 6-9 3-6 3-5 15-20z" fill="#633D70"/>
<path transform="translate(1102,861)" d="m0 0h1l2 8v39l-3 20h-1v-20z" fill="#A81D32"/>
<path transform="translate(1648,881)" d="m0 0h1l1 12 3 3v4h2l1-2v19l-2-4v-8h-8l-2 10h-1v-13l4-5z" fill="#CC8087"/>
<path transform="translate(537,831)" d="m0 0 9 1 16 3 11 1h12l15-2h8v2l-11 2-12 1h-10l-20-2-18-5z" fill="#4B2D68"/>
<path transform="translate(1290,85)" d="m0 0 2 1-1 3v3h-2l1 3-6 3v3l-2 1v-2h-2l-1 3-5 3-7 5 2-5 16-17z" fill="#094E97"/>
<path transform="translate(1291,864)" d="m0 0h3l9 11 2 3-4-2-4-3-2 5v28l-2 5-1-3 1-3v-17l-2-11z" fill="#CC8087"/>
<path transform="translate(1766,655)" d="m0 0h5l4 5 3 7v3h-2l1 3h-4l-5-6-2-6-1-4z" fill="#094E97"/>
<path transform="translate(825,152)" d="m0 0h7v3l1 2-2 4-11 5h-4l-1-5h3l2-4 5-2z" fill="#4F3D77"/>
<path transform="translate(1436,385)" d="m0 0 34 2-2 4h-15l-14-2-4-1z" fill="#3A4582"/>
<path transform="translate(411,451)" d="m0 0h1l-1 7-6 17-2 5-3 1 1-11 3-10h2v-6z" fill="#124081"/>
<path transform="translate(726,444)" d="m0 0h3l1 4v13h-2l-1 4-5 2 2-21z" fill="#4B2D68"/>
<path transform="translate(1074,990)" d="m0 0h20l38 1v2l-36 1-13-1v-2l-13 1z" fill="#F4FEFE"/>
<path transform="translate(1437,856)" d="m0 0h12l6 5 4 11 5 18-1 4-5-14-3-6v-8l-4-6-6-1-3 1-6-1-7 1 1-2z" fill="#FEECED"/>
<path transform="translate(1473,854)" d="m0 0 45 1 12 5 5 4v9h-1l-2-9-4-2-5-3-11-2-37-1v7l-3-4-2-4z" fill="#FEECED"/>
<path transform="translate(458,758)" d="m0 0 2 1 7 14 11 15 12 13 11 9 2 3-4-2-9-7-18-18-4-8-7-11z" fill="#3A4583"/>
<path transform="translate(1728,82)" d="m0 0h3l-2 5-5 5-6 7-2-2v-3h-2l-1 3h-1v-5h2l1-3 10-6z" fill="#0F4082"/>
<path transform="translate(1220,646)" d="m0 0 3 3 4 8-1 7-3 6-2 8h-1z" fill="#F1FBFB"/>
<path transform="translate(725,442)" d="m0 0 3 1-3 3-2 19-1 2 2 1-2 3h-4l-1-7 3-10 1-4 1-5z" fill="#633D70"/>
<path transform="translate(767,480)" d="m0 0 2 1-17 13-12 9-10 7-14 9-2-1 11-8 13-9 17-12z" fill="#103F80"/>
<path transform="translate(1324,863)" d="m0 0 2 3 1 11-3 4-6-2 2 8-4-1-6-1-1-2 5 1-1-8-2-3 4 2v2h6l1-5h2z" fill="#FEECED"/>
<path transform="translate(820,252)" d="m0 0 2 1 1 6-3 8-11 14-5 5-5 6-3-1 7-7 3-5 5-5 5-7 3-9v-5z" fill="#103F80"/>
<path transform="translate(1768,151)" d="m0 0 2 4 3 1 1 4 6 2 2 3v4l-3 2v3l-4-2-5-12z" fill="#094D95"/>
<path transform="translate(484,891)" d="m0 0 11 3 24 8v2l5 1-3 3-10-4-24-10z" fill="#1F4181"/>
<path transform="translate(1761,855)" d="m0 0h10l2 3v57h-1l-1-51-2-7h-6l-1 1-2 20h-1v-16z" fill="#FDECED"/>
<path transform="translate(597,639)" d="m0 0 10 5 5 5 1 4-8 1-7-9z" fill="#4B2D68"/>
<path transform="translate(1483,463)" d="m0 0 4 4-2 4 2 4-1 7-4-3v-2h-2l-2-4v-7l5-1z" fill="#094D96"/>
<path transform="translate(1521,883)" d="m0 0h3v45h-1l-1-5-1-22z" fill="#C44F57"/>
<path transform="translate(1098,697)" d="m0 0 23 2-2 3-13 3-8-3-1-4z" fill="#0F4081"/>
<path transform="translate(1694,331)" d="m0 0 4 2 3 5 2 6v5l-4 2-4-9-2-9z" fill="#103F80"/>
<path transform="translate(1571,867)" d="m0 0 16 4-3 1-11-2-1 1-1 20 1 18 2 9-3-4-2-13v-28z" fill="#CC8087"/>
<path transform="translate(440,597)" d="m0 0h1v7l-2 9v3 8l-2 3-1 6h-2v-10l3-24 2 1z" fill="#0F3F81"/>
<path transform="translate(768,316)" d="m0 0 2 1-11 11-2 3h-2l-2 4-8 10-5 9v7l-2 1-1-3v-7l11-15 11-12z" fill="#103F80"/>
<path transform="translate(1499,514)" d="m0 0h3l3 1 6 9 7 8 2 5v6l-2-4-3-7-1-3-3-1v-2l-4-2-4 1-3-4z" fill="#0C4D95"/>
<path transform="translate(418,502)" d="m0 0 1 3-9 23-3 4v-4l3-16 2-4h2l2-4z" fill="#762659"/>
<path transform="translate(1749,75)" d="m0 0 10 1 9 3v2l-6 1-13-2v-2l-9 1-3-3z" fill="#143F80"/>
<path transform="translate(1477,204)" d="m0 0 3 2 6-1-1 9-1 1-7-1-3-3-1-5h4z" fill="#EFFFFF"/>
<path transform="translate(1098,194)" d="m0 0h1l-1 22v53h-1l-1-11-1-52 2-5z" fill="#094E97"/>
<path transform="translate(397,570)" d="m0 0h1l-1 11-5 35-1 20-3-3 4-37 4-21z" fill="#8F3A61"/>
<path transform="translate(474,462)" d="m0 0h2l-3 10-8 20-3 7h-1v-7l5-12z" fill="#45417D"/>
<path transform="translate(463,480)" d="m0 0h3l-3 9-3 17-2 4-1-8-1-5 5-15z" fill="#574176"/>
<path transform="translate(832,159)" d="m0 0v3l-4 5-9 5-21 3-14 3-3-1 9-3 10-2 14-2 10-4z" fill="#103F80"/>
<path transform="translate(794,151)" d="m0 0 6 2 2 2-1 4-6-2-9 2-4 4-4-1 3-4h4v-2l5-1 1-3z" fill="#4B2D68"/>
<path transform="translate(1444,866)" d="m0 0 5 1 4 4-1 4h-2l-1 8h-1l-1-8h-3l-2 2-1-8z" fill="#FEECED"/>
<path transform="translate(1421,885)" d="m0 0h3v18l-3 6-3-1v-9l2-7z" fill="#AB283C"/>
<path transform="translate(1147,881)" d="m0 0 1 4-3 11-2 2-4-1-4-6 2-3v-6l2 2 1 6 4-4h2z" fill="#FEECED"/>
<path transform="translate(553,255)" d="m0 0 3 1-39 39h-2l2-4 10-9 5-6 8-7 8-8z" fill="#662A60"/>
<path transform="translate(1253,854)" d="m0 0h21l9 5 4 7-1 3-4-1-18-2v-1h17l-2-6-6-3-20-1z" fill="#FEECED"/>
<path transform="translate(413,832)" d="m0 0 4 4 6 9 5 5 12 11-2 1-4-2v-2l-4-2-7-7v-2l-4-2-6-9z" fill="#2B3F7D"/>
<path transform="translate(447,735)" d="m0 0 2 3 5 13 8 16 9 14-1 2-2-4-3-1-5-7-1-5-8-16-4-10z" fill="#53336C"/>
<path transform="translate(1241,862)" d="m0 0 1 2-3 7v20l-2 27h-1v-44l-2-4 4-4h2z" fill="#C5555D"/>
<path transform="translate(747,378)" d="m0 0h2l7 10 3 4v2h2l12 17 3 3-1 2-9-10-15-20-4-6z" fill="#103F80"/>
<path transform="translate(1523,875)" d="m0 0h1l1 8h3l-1 8 1 4-3-1v36h-1z" fill="#FEECED"/>
<path transform="translate(1777,677)" d="m0 0 3 1v2h3l1 6 3 1-1 4h-5l-1-4h-2l-2-4v-3h2z" fill="#094E97"/>
<path transform="translate(719,309)" d="m0 0 4 2 4 8 3 7v7h-2l-5-13-4-7z" fill="#4B2D68"/>
<path transform="translate(513,379)" d="m0 0 2 3-3 3v6l-9 9-1 2h-2v3h-2l2-5 9-15z" fill="#5E3F73"/>
<path transform="translate(607,895)" d="m0 0h6l-2 2-26 8-8 3-4-1 14-5h2v-2z" fill="#433C78"/>
<path transform="translate(443,721)" d="m0 0h1l4 19 5 12 2 6-5-5-3-7-4-10z" fill="#762659"/>
<path transform="translate(1267,215)" d="m0 0 2 2 1 10v23l-2 2-1-12-1-15 1-5z" fill="#103F80"/>
<path transform="translate(609,208)" d="m0 0 2 1-15 12-8 6h-5l5-5 16-11z" fill="#514178"/>
<path transform="translate(804,146)" d="m0 0h2l2 2 6-1 1 4 3 1-8 3-4-1h-4l1-3 2-2z" fill="#4B2D68"/>
<path transform="translate(778,147)" d="m0 0 4 1v4l5 1-1 2-9 3-3-6v-4z" fill="#4B2D68"/>
<path transform="translate(1140,910)" d="m0 0h2l9 19v3h-2l-2-4-2-3v-4h-3l-3-4z" fill="#AC2B3E"/>
<path transform="translate(457,510)" d="m0 0 1 3-10 34-1 10h-2l1-14 3-7 7-25z" fill="#40427E"/>
<path transform="translate(828,161)" d="m0 0 2 1-8 6-12 4-14 1 3-3h8l13-5z" fill="#3A4583"/>
<path transform="translate(1326,866)" d="m0 0h1l1 5v7l-3 7h-3l1 2v9h-1l-2-9-2-4v-4l6 1 2-3z" fill="#CC8087"/>
<path transform="translate(507,299)" d="m0 0h2l-2 4-11 12h-2l-2 4-7 7v-3l12-13 9-10z" fill="#583F75"/>
<path transform="translate(458,376)" d="m0 0 1 3-3 10-5 10-2 1 1-7 5-13z" fill="#773B68"/>
<path transform="translate(1635,890)" d="m0 0 2 3 1 6-5 17-6 12-1-3 6-13 2-10-1-4z" fill="#CC8087"/>
<path transform="translate(402,813)" d="m0 0 4 5 4 7v2h2l1 5-4-1-7-11-2-4z" fill="#2C3F7C"/>
<path transform="translate(457,364)" d="m0 0v3l-2 2-3 7-12 20-1-2 4-9h2l4-12 6-8z" fill="#5B3E73"/>
<path transform="translate(471,347)" d="m0 0 3 1-2 5-5 3-4 5-5 3 1-5h2l2-6 5-1v-2z" fill="#5F3D71"/>
<path transform="translate(1247,314)" d="m0 0 2 2 3 11 8 16 1 6-3-3-8-17-3-11z" fill="#094E97"/>
<path transform="translate(433,620)" d="m0 0h1v15l-2 24h-1v-28z" fill="#4B417B"/>
<path transform="translate(422,538)" d="m0 0 1 2-8 34-2-3 4-19 4-13z" fill="#5C4275"/>
<path transform="translate(1551,373)" d="m0 0 6 2-2 1v2h2l-1 7-4 1-3-11h2z" fill="#0E4C93"/>
<path transform="translate(1174,82)" d="m0 0 6 4 7 9v2l-4-1-8-8z" fill="#124183"/>
<path transform="translate(439,706)" d="m0 0h3l4 14 2 11-1 5-2-4-5-23z" fill="#593A71"/>
<path transform="translate(634,887)" d="m0 0 5 1-4 2-19 6-5-1 3-2z" fill="#443975"/>
<path transform="translate(437,584)" d="m0 0h1v15l-3 24h-1v-18z" fill="#44417E"/>
<path transform="translate(446,541)" d="m0 0 1 2-2 18h-2v5l-3-1 2-11 3-12z" fill="#5A3E74"/>
<path transform="translate(1469,912)" d="m0 0 2 4 3 2 1 8 1 2h-2v3h-2l-3-9z" fill="#AA1C30"/>
<path transform="translate(476,790)" d="m0 0 7 6 10 10 12 9h-3l-11-8-10-10-5-4z" fill="#512E67"/>
<path transform="translate(743,791)" d="m0 0 2 2 2 17-3 16h-1z" fill="#103F80"/>
<path transform="translate(423,497)" d="m0 0 1 2-2 13h-2v4h-3v3h-2l3-11 4-10z" fill="#CC8087"/>
<path transform="translate(1535,194)" d="m0 0v3l-5 4-9 4-7 3-7-1v-2l8-1 12-4 6-4z" fill="#F0FCFC"/>
<path transform="translate(458,758)" d="m0 0 2 1 7 14 8 11 1 6-5-5-3-7-7-11z" fill="#3E407D"/>
<path transform="translate(1758,633)" d="m0 0 4 1 2 7v3l-4-1-4-4 1-5z" fill="#094E97"/>
<path transform="translate(421,433)" d="m0 0 1 4-4 12-6 13-1-3 5-12 3-10z" fill="#6E275C"/>
<path transform="translate(695,317)" d="m0 0 1 3-9 15-9 10v-3l8-10 8-14z" fill="#103F80"/>
<path transform="translate(407,490)" d="m0 0h1v8l-2 12-2 2v-16l1-4h2z" fill="#963557"/>
<path transform="translate(821,137)" d="m0 0h2v2l4-1 9 1 2 3-9 1-9-3z" fill="#5B4275"/>
<path transform="translate(1284,860)" d="m0 0 4 4 1 9-5-1-3-3-11-1v-1h12l4 1z" fill="#CC8087"/>
<path transform="translate(480,446)" d="m0 0 3 1-6 15h-2l-1-6h2l2-6z" fill="#504279"/>
<path transform="translate(820,157)" d="m0 0 5 1-2 5-5 3h-2l-1-5h3z" fill="#5B4175"/>
<path transform="translate(1755,337)" d="m0 0 2 1-8 5-9 1-7-3 2-1 10 1z" fill="#F1FBFC"/>
<path transform="translate(1105,377)" d="m0 0 5 2 14 9-2 1-7-3-9-6z" fill="#0E4386"/>
<path transform="translate(1098,622)" d="m0 0 11 1v1h-10l-1 27h-1v-28z" fill="#EFFDFD"/>
<path transform="translate(1275,366)" d="m0 0 4 2 5 4 5 5 4 3v2l-5-2-13-12z" fill="#124284"/>
<path transform="translate(510,901)" d="m0 0 9 1v2l5 1-3 3-10-4z" fill="#163F80"/>
<path transform="translate(765,155)" d="m0 0h2l2 3 7 2v4l-5 1-3-2-3-6z" fill="#4B2D68"/>
<path transform="translate(1794,917)" d="m0 0 4 1v2l2 1h-3l-1 3-6 1v-3z" fill="#AC2437"/>
<path transform="translate(1400,909)" d="m0 0 1 4 1 5-2 6 2 1-4-1-1-1v-7z" fill="#CC8087"/>
<path transform="translate(828,143)" d="m0 0 7 1-1 2-8 2h-7l-1-2z" fill="#4B2D68"/>
<path transform="translate(1503,83)" d="m0 0h17v4h-5l-8-2z" fill="#103F80"/>
<path transform="translate(451,755)" d="m0 0 6 4 4 9-1 3-5-7-1-3-2-1z" fill="#88345E"/>
<path transform="translate(563,326)" d="m0 0 2 2-6 9-3 2v-4l6-8z" fill="#0F4082"/>
<path transform="translate(1712,859)" d="m0 0 5 1-1 4-7 2-1-3z" fill="#FEFDFD"/>
<path transform="translate(406,487)" d="m0 0 4 1 1 9-1 5h-2l-1-10-1-4z" fill="#84305C"/>
<path transform="translate(786,433)" d="m0 0 3 3 3 8v6l-3 5-1-2 1-8z" fill="#3A4583"/>
<path transform="translate(1329,461)" d="m0 0 13 1 5 2-2 2h-9l1-3-4 1v-2z" fill="#094C95"/>
<path transform="translate(1480,875)" d="m0 0 2 3 3 12v7h-2l-1-10-2-6z" fill="#C45058"/>
<path transform="translate(437,700)" d="m0 0 2 4 4 13-1 3-3-3-2-12z" fill="#762659"/>
<path transform="translate(376,588)" d="m0 0 1 4-2 12-3 2-2-1 1-4 2-2z" fill="#174283"/>
<path transform="translate(814,134)" d="m0 0 5 1-1 4-1 1h-7l-1-2 4-3z" fill="#4B2D68"/>
<path transform="translate(1559,127)" d="m0 0 3 1 2 7v5h-2l-4-8z" fill="#103F80"/>
<path transform="translate(1673,544)" d="m0 0 2 1v6l1 2-2 8-2-4v-12z" fill="#094E97"/>
<path transform="translate(469,383)" d="m0 0h2l-1 5h-2l-1 4-6 12-2-1 8-16z" fill="#86325E"/>
<path transform="translate(1168,738)" d="m0 0h13l-4 2h-4l-1 3-6-1v-3z" fill="#103F80"/>
<path transform="translate(723,851)" d="m0 0h2l-1 3-13 8-1-3 10-6z" fill="#4F4079"/>
<path transform="translate(1737,630)" d="m0 0 1 3-3 15-3-1 3-14z" fill="#103F80"/>
<path transform="translate(434,460)" d="m0 0h1v7l-3 11-3 2 2-9z" fill="#812F5C"/>
<path transform="translate(1715,877)" d="m0 0 5 1 1 6-4-1v5h-1z" fill="#AB1E31"/>
<path transform="translate(1271,599)" d="m0 0 3 1-3 1-2 10-2 4-1-9z" fill="#F1FCFC"/>
<path transform="translate(1374,890)" d="m0 0 5 1-3 1-1 18h-1z" fill="#CC8087"/>
<path transform="translate(461,769)" d="m0 0h2l8 12-1 2-2-4-3-1-5-7z" fill="#673064"/>
<path transform="translate(1289,630)" d="m0 0 4 1 2 4v4l-4-1-2-5z" fill="#103F80"/>
<path transform="translate(439,570)" d="m0 0 1 4-1 10h-3v-7z" fill="#5F3E72"/>
<path transform="translate(1317,463)" d="m0 0 4 2-1 6-2 2-4-1 3-5z" fill="#094E97"/>
<path transform="translate(821,151)" d="m0 0 2 1v2l3 1-6 3h-6v-2l4-1z" fill="#4B2D68"/>
<path transform="translate(1798,922)" d="m0 0h3v9l-6-5 1-3z" fill="#FCFAFA"/>
<path transform="translate(451,425)" d="m0 0 1 3-5 11-1 2h-2l3-9z" fill="#CC8087"/>
<path transform="translate(513,379)" d="m0 0 2 3-7 9-2 4h-2l2-5z" fill="#58366D"/>
<path transform="translate(1769,157)" d="m0 0 2 3 3 8-1 3-4-4z" fill="#F0FDFD"/>
<path transform="translate(1454,387)" d="m0 0h16l-1 3-15-1z" fill="#48437C"/>
<path transform="translate(1473,207)" d="m0 0 6 5h4l2-5 1 3-2 5-7-1-3-3z" fill="#FEECED"/>
<path transform="translate(1767,857)" d="m0 0 4 1v2h-2l-1 6-2 1-1-6z" fill="#EFFEFE"/>
<path transform="translate(439,668)" d="m0 0 2 2 3 7v5l-2-4-5-4z" fill="#094E97"/>
<path transform="translate(474,462)" d="m0 0h2l-3 10-4 4 1-6z" fill="#48407C"/>
<path transform="translate(1205,287)" d="m0 0 3 3 5 8v10h-1l-1-9-1-4-4-2z" fill="#094E97"/>
<path transform="translate(647,883)" d="m0 0 4 1-2 2-7 2h-5v-2z" fill="#493772"/>
<path transform="translate(389,636)" d="m0 0 2 4-1 16-2 1v-18z" fill="#8F3A61"/>
<path transform="translate(1302,912)" d="m0 0h2l2 6-4-1-2 5-3 2 2-5z" fill="#CC8087"/>
<path transform="translate(484,891)" d="m0 0 11 3 3 1 1 3-6-1-9-5z" fill="#194080"/>
<path transform="translate(1177,480)" d="m0 0 5 1 2 3-2 3-3-1-1-3-3-2z" fill="#0F3F80"/>
<path transform="translate(457,364)" d="m0 0v3l-2 2-3 7-3 1v-5l5-5z" fill="#523F76"/>
<path transform="translate(1210,147)" d="m0 0 2 4 2 9-3 1-3-9h2z" fill="#094C94"/>
<path transform="translate(1146,920)" d="m0 0 3 4 2 5v3h-2l-2-4-2-3z" fill="#B63A49"/>
<path transform="translate(432,645)" d="m0 0h3v12l-2 1-1-5z" fill="#103F80"/>
<path transform="translate(566,241)" d="m0 0m-1 1m-2 1 2 1-5 6-4 5-3-1z" fill="#574176"/>
<path transform="translate(1152,77)" d="m0 0 8 1 1 3h-6l-3 1z" fill="#103F80"/>
<path transform="translate(515,378)" d="m0 0h3l-2 5-3 6-2-4 3-4z" fill="#564076"/>
<path transform="translate(461,354)" d="m0 0 2 1-2 4h-2l-1 5h-3l2-5z" fill="#174182"/>
<path transform="translate(1590,919)" d="m0 0 2 1-7 6-7-1-1-2 9-1z" fill="#CC8087"/>
<path transform="translate(708,860)" d="m0 0h2l-1 3-8 4-4-1z" fill="#493974"/>
<path transform="translate(1553,110)" d="m0 0 3 1 1 5-1 2-3-1-1-6z" fill="#103F80"/>
<path transform="translate(1123,892)" d="m0 0 2 2 6 1-4 2-2-1-1 2-1-3h-2v5h-1v-6z" fill="#CB7980"/>
<path transform="translate(1331,468)" d="m0 0 5 1v4l-3 1-3-5z" fill="#094E97"/>
<path transform="translate(1436,385)" d="m0 0 12 1-4 3-9-1z" fill="#4E437A"/>
<path transform="translate(582,227)" d="m0 0h5l-5 5-4 1v-3z" fill="#594075"/>
<path transform="translate(1182,177)" d="m0 0 5 1 5 2-2 2-6-1z" fill="#0A4B92"/>
</svg>
